<?xml version="1.0" encoding="UTF-8"?>
<svg version="1.1" xmlns="http://www.w3.org/2000/svg" width="1080" height="1080">
<path d="M0 0 C4.2436544 0.01022996 8.48725115 -0.00292546 12.73089718 -0.01297333 C20.15435313 -0.02736525 27.57769255 -0.02701577 35.00115376 -0.01678469 C46.04030306 -0.00161201 57.07935464 -0.00941182 68.11850335 -0.02161792 C87.83772618 -0.04265108 107.55689708 -0.04086726 127.27612481 -0.02930227 C144.53233814 -0.01923173 161.78853245 -0.01661712 179.04474812 -0.02139284 C180.19032516 -0.02169838 181.33590221 -0.02200393 182.51619371 -0.02231872 C187.16669828 -0.02356412 191.81720285 -0.02483772 196.4677074 -0.02615778 C240.07320856 -0.03838773 283.67867668 -0.02730938 327.28417274 -0.00577019 C366.00923821 0.01321283 404.73425106 0.01151195 443.45931606 -0.00761416 C486.9876425 -0.02904082 530.51593976 -0.03752158 574.04427074 -0.0251651 C578.68588901 -0.02388227 583.32750728 -0.02263091 587.96912556 -0.02139284 C589.11197411 -0.02107654 590.25482266 -0.02076023 591.43230298 -0.02043433 C608.67666755 -0.01588793 625.92101101 -0.02119902 643.16537266 -0.03131106 C662.77577091 -0.04275334 682.38610922 -0.03987749 701.99650001 -0.01818808 C712.96645798 -0.00645477 723.93628608 -0.0056591 734.90624065 -0.02077278 C742.23957697 -0.02976044 749.57280944 -0.02412743 756.90613041 -0.0067537 C761.08040323 0.00273429 765.25441858 0.00607203 769.42868304 -0.00837763 C801.21034558 -0.11076485 801.21034558 -0.11076485 814.94002895 4.51387022 C814.94002895 5.17387022 814.94002895 5.83387022 814.94002895 6.51387022 C815.5433102 6.64664365 816.14659145 6.77941709 816.76815395 6.91621397 C817.5673727 7.09281553 818.36659145 7.26941709 819.19002895 7.45137022 C819.9789352 7.62539365 820.76784145 7.79941709 821.58065395 7.97871397 C823.70881598 8.46142622 825.82535738 8.97550199 827.94002895 9.51387022 C827.94002895 10.17387022 827.94002895 10.83387022 827.94002895 11.51387022 C831.24002895 12.50387022 834.54002895 13.49387022 837.94002895 14.51387022 C837.94002895 15.17387022 837.94002895 15.83387022 837.94002895 16.51387022 C839.07440395 16.78199522 840.20877895 17.05012022 841.37752895 17.32637022 C842.55315395 17.71824522 843.72877895 18.11012022 844.94002895 18.51387022 C845.27002895 19.50387022 845.60002895 20.49387022 845.94002895 21.51387022 C847.79747103 22.12454166 847.79747103 22.12454166 849.94002895 22.51387022 C851.28800325 23.15041363 852.6259962 23.8099241 853.94002895 24.51387022 C853.94002895 25.17387022 853.94002895 25.83387022 853.94002895 26.51387022 C855.39409145 26.91605772 855.39409145 26.91605772 856.87752895 27.32637022 C857.88815395 27.71824522 858.89877895 28.11012022 859.94002895 28.51387022 C860.27002895 29.50387022 860.60002895 30.49387022 860.94002895 31.51387022 C862.60357685 32.18828153 864.27069837 32.85390231 865.94002895 33.51387022 C867.29311208 34.82715678 868.62872973 36.15886102 869.94002895 37.51387022 C870.93002895 37.84387022 871.92002895 38.17387022 872.94002895 38.51387022 C872.94002895 39.50387022 872.94002895 40.49387022 872.94002895 41.51387022 C874.02284145 41.85418272 874.02284145 41.85418272 875.12752895 42.20137022 C878.53877456 43.79328483 880.497699 45.66448527 882.94002895 48.51387022 C883.75252895 50.82637022 883.75252895 50.82637022 883.94002895 52.51387022 C884.60002895 52.51387022 885.26002895 52.51387022 885.94002895 52.51387022 C885.94002895 53.17387022 885.94002895 53.83387022 885.94002895 54.51387022 C886.60002895 54.51387022 887.26002895 54.51387022 887.94002895 54.51387022 C891.29337622 57.52328443 893.91988034 60.47357299 895.94002895 64.51387022 C895.94002895 65.50387022 895.94002895 66.49387022 895.94002895 67.51387022 C896.93002895 67.84387022 897.92002895 68.17387022 898.94002895 68.51387022 C900.12752895 71.57637022 900.12752895 71.57637022 900.94002895 74.51387022 C901.60002895 74.51387022 902.26002895 74.51387022 902.94002895 74.51387022 C904.9817238 77.41935904 905.94002895 78.91529067 905.94002895 82.51387022 C906.60002895 82.51387022 907.26002895 82.51387022 907.94002895 82.51387022 C910.94002895 89.13887022 910.94002895 89.13887022 910.94002895 92.51387022 C911.60002895 92.51387022 912.26002895 92.51387022 912.94002895 92.51387022 C913.44370653 93.97093748 913.94285452 95.42957118 914.44002895 96.88887022 C914.71846645 97.70097959 914.99690395 98.51308897 915.28377895 99.34980772 C915.94002895 101.51387022 915.94002895 101.51387022 915.94002895 103.51387022 C916.60002895 103.51387022 917.26002895 103.51387022 917.94002895 103.51387022 C921.12817335 113.74818839 922.51999052 122.7916069 922.44339352 133.56680486 C922.44757781 135.02656199 922.45351147 136.48631493 922.46101098 137.94605879 C922.47647087 141.92940321 922.4673297 145.91235561 922.45389917 149.89569307 C922.44369875 154.2398517 922.45681311 158.58395294 922.4668725 162.92810331 C922.48128559 170.53255319 922.48090179 178.13688938 922.47068386 185.74134443 C922.4555308 197.04946331 922.46330083 208.35748659 922.47551709 219.66560487 C922.49656516 239.86330608 922.49476052 260.06095664 922.48320144 280.25866265 C922.47313629 297.93283715 922.47051378 315.60699309 922.47529201 333.28116987 C922.47575033 335.0402264 922.47575033 335.0402264 922.47621789 336.83481942 C922.47746326 341.5952749 922.47873686 346.35573036 922.48005695 351.11618582 C922.49229035 395.76391007 922.48120292 440.41160207 922.45966936 485.05932134 C922.44068474 524.72371298 922.44238783 564.38805325 922.46151333 604.05244444 C922.48293217 648.62191392 922.49142522 693.19135492 922.47906427 737.76082883 C922.47778141 742.51195325 922.47653005 747.26307767 922.47529201 752.0142021 C922.47497571 753.1840397 922.4746594 754.3538773 922.4743335 755.55916453 C922.46978399 773.22335611 922.47510396 790.8875271 922.48521023 808.55171583 C922.49664358 828.63551024 922.49379566 848.71924611 922.47208725 868.80303323 C922.46033914 880.04265182 922.45957968 891.28214364 922.47467195 902.52175896 C922.48364172 910.02984416 922.47805884 917.53782774 922.46065287 925.04589789 C922.45114015 929.32331153 922.44787904 933.60047332 922.4622768 937.87787902 C922.47525812 941.77424183 922.4696233 945.67013087 922.44955416 949.56645958 C922.44554747 950.96225375 922.44813182 952.35808774 922.45837792 953.75385006 C922.5215491 963.02181906 921.15163926 970.81002887 917.94002895 979.51387022 C917.28002895 979.51387022 916.62002895 979.51387022 915.94002895 979.51387022 C915.80725552 980.12875303 915.67448208 980.74363584 915.5376852 981.37715147 C915.36108364 982.18539365 915.18448208 982.99363584 915.00252895 983.82637022 C914.82850552 984.62687803 914.65448208 985.42738584 914.4751852 986.25215147 C913.94002895 988.51387022 913.94002895 988.51387022 912.94002895 991.51387022 C912.28002895 991.51387022 911.62002895 991.51387022 910.94002895 991.51387022 C909.95002895 994.81387022 908.96002895 998.11387022 907.94002895 1001.51387022 C907.28002895 1001.51387022 906.62002895 1001.51387022 905.94002895 1001.51387022 C905.53784145 1002.96793272 905.53784145 1002.96793272 905.12752895 1004.45137022 C904.53971645 1005.96730772 904.53971645 1005.96730772 903.94002895 1007.51387022 C902.95002895 1007.84387022 901.96002895 1008.17387022 900.94002895 1008.51387022 C900.75440395 1009.65855772 900.75440395 1009.65855772 900.56502895 1010.82637022 C899.94002895 1013.51387022 899.94002895 1013.51387022 897.94002895 1016.51387022 C897.28002895 1016.51387022 896.62002895 1016.51387022 895.94002895 1016.51387022 C895.63065395 1017.53480772 895.63065395 1017.53480772 895.31502895 1018.57637022 C893.51107869 1022.43026397 891.03899445 1025.59174786 887.94002895 1028.51387022 C887.28002895 1028.51387022 886.62002895 1028.51387022 885.94002895 1028.51387022 C885.94002895 1029.50387022 885.94002895 1030.49387022 885.94002895 1031.51387022 C885.28002895 1031.51387022 884.62002895 1031.51387022 883.94002895 1031.51387022 C883.61002895 1032.50387022 883.28002895 1033.49387022 882.94002895 1034.51387022 C882.28002895 1034.51387022 881.62002895 1034.51387022 880.94002895 1034.51387022 C880.53784145 1035.47293272 880.53784145 1035.47293272 880.12752895 1036.45137022 C878.94002895 1038.51387022 878.94002895 1038.51387022 875.94002895 1039.51387022 C875.61002895 1040.50387022 875.28002895 1041.49387022 874.94002895 1042.51387022 C874.28002895 1042.51387022 873.62002895 1042.51387022 872.94002895 1042.51387022 C872.94002895 1043.17387022 872.94002895 1043.83387022 872.94002895 1044.51387022 C871.95002895 1044.51387022 870.96002895 1044.51387022 869.94002895 1044.51387022 C869.71315395 1045.09137022 869.48627895 1045.66887022 869.25252895 1046.26387022 C866.64726793 1050.73003198 862.72376888 1052.87373081 857.94002895 1054.51387022 C857.94002895 1055.17387022 857.94002895 1055.83387022 857.94002895 1056.51387022 C855.03454013 1058.55556506 853.5386085 1059.51387022 849.94002895 1059.51387022 C849.61002895 1060.50387022 849.28002895 1061.49387022 848.94002895 1062.51387022 C845.87752895 1063.70137022 845.87752895 1063.70137022 842.94002895 1064.51387022 C842.94002895 1065.17387022 842.94002895 1065.83387022 842.94002895 1066.51387022 C839.64002895 1067.50387022 836.34002895 1068.49387022 832.94002895 1069.51387022 C832.94002895 1070.17387022 832.94002895 1070.83387022 832.94002895 1071.51387022 C831.5044887 1072.0194693 830.06650876 1072.51814512 828.62752895 1073.01387022 C827.82702114 1073.29230772 827.02651333 1073.57074522 826.2017477 1073.85762022 C823.94002895 1074.51387022 823.94002895 1074.51387022 820.94002895 1074.51387022 C820.94002895 1075.17387022 820.94002895 1075.83387022 820.94002895 1076.51387022 C811.52499948 1079.98790019 803.11838924 1081.09049372 793.13877659 1081.01723478 C791.68195569 1081.02141665 790.22513897 1081.02734855 788.7683314 1081.03485224 C784.7838022 1081.0503468 780.79966364 1081.04115235 776.81514121 1081.02774043 C772.47314457 1081.01755705 768.13120597 1081.03064773 763.78921764 1081.04071376 C756.185403 1081.05513932 748.58170202 1081.05473534 740.97788219 1081.04452512 C729.6705688 1081.02938329 718.36335114 1081.03713636 707.05603837 1081.04935835 C686.85961789 1081.07041606 666.66324805 1081.06859774 646.46682276 1081.0570427 C628.79133003 1081.04697967 611.11585585 1081.04435405 593.44036083 1081.04913328 C591.68153346 1081.04959159 591.68153346 1081.04959159 589.88717422 1081.05005916 C585.12735858 1081.05130452 580.36754296 1081.05257812 575.60772735 1081.05389821 C530.95660517 1081.06613423 486.30551523 1081.05504063 441.65439803 1081.03351063 C401.99031372 1081.0145307 362.32628078 1081.01622463 322.66219692 1081.03535459 C278.0956526 1081.05677717 233.52913676 1081.06526396 188.962588 1081.05290554 C184.21083488 1081.05162268 179.45908174 1081.05037132 174.70732861 1081.04913328 C173.53733285 1081.04881697 172.36733709 1081.04850066 171.16188692 1081.04817476 C153.49950812 1081.0436263 135.83714992 1081.04894337 118.17477398 1081.05905149 C98.08879241 1081.07048934 78.00286937 1081.06762756 57.91689509 1081.04592852 C46.67770728 1081.03418699 35.43864623 1081.03341138 24.19946171 1081.04851321 C16.68904004 1081.05749113 9.17871989 1081.05188536 1.66831324 1081.03449414 C-2.60882969 1081.02499258 -6.88572103 1081.02169695 -11.16285592 1081.03611807 C-15.06133869 1081.04912812 -18.95934886 1081.04342391 -22.85779781 1081.02339543 C-24.90488607 1081.01752759 -26.95200269 1081.03106085 -28.99904765 1081.04561255 C-38.29441659 1080.97090086 -46.23389844 1079.26332489 -55.05997105 1076.51387022 C-55.05997105 1075.85387022 -55.05997105 1075.19387022 -55.05997105 1074.51387022 C-55.68645542 1074.38109678 -56.3129398 1074.24832334 -56.95840855 1074.11152647 C-57.77567417 1073.9349249 -58.5929398 1073.75832334 -59.43497105 1073.57637022 C-60.24708042 1073.40234678 -61.0591898 1073.22832334 -61.89590855 1073.04902647 C-64.05997105 1072.51387022 -64.05997105 1072.51387022 -66.05997105 1071.51387022 C-66.05997105 1070.85387022 -66.05997105 1070.19387022 -66.05997105 1069.51387022 C-66.78184605 1069.39012022 -67.50372105 1069.26637022 -68.24747105 1069.13887022 C-71.01718999 1068.52337712 -73.45700645 1067.62942647 -76.05997105 1066.51387022 C-76.05997105 1065.85387022 -76.05997105 1065.19387022 -76.05997105 1064.51387022 C-76.63747105 1064.39012022 -77.21497105 1064.26637022 -77.80997105 1064.13887022 C-80.08332871 1063.50738198 -81.98532394 1062.62528831 -84.05997105 1061.51387022 C-84.05997105 1060.85387022 -84.05997105 1060.19387022 -84.05997105 1059.51387022 C-85.51403355 1059.11168272 -85.51403355 1059.11168272 -86.99747105 1058.70137022 C-88.51340855 1058.11355772 -88.51340855 1058.11355772 -90.05997105 1057.51387022 C-90.55497105 1056.02887022 -90.55497105 1056.02887022 -91.05997105 1054.51387022 C-92.91741312 1053.90319877 -92.91741312 1053.90319877 -95.05997105 1053.51387022 C-98.89703764 1052.02855412 -101.32832706 1049.5490302 -104.05997105 1046.51387022 C-104.05997105 1045.85387022 -104.05997105 1045.19387022 -104.05997105 1044.51387022 C-104.71997105 1044.51387022 -105.37997105 1044.51387022 -106.05997105 1044.51387022 C-106.05997105 1043.85387022 -106.05997105 1043.19387022 -106.05997105 1042.51387022 C-106.93395542 1042.38818662 -106.93395542 1042.38818662 -107.82559605 1042.25996397 C-110.71063441 1041.29660325 -111.85697831 1039.88407318 -113.80997105 1037.57637022 C-114.4235648 1036.86609678 -115.03715855 1036.15582334 -115.66934605 1035.42402647 C-117.05997105 1033.51387022 -117.05997105 1033.51387022 -117.05997105 1031.51387022 C-118.04997105 1031.51387022 -119.03997105 1031.51387022 -120.05997105 1031.51387022 C-120.30747105 1030.93637022 -120.55497105 1030.35887022 -120.80997105 1029.76387022 C-121.98454173 1027.39393606 -121.98454173 1027.39393606 -124.12247105 1025.51387022 C-126.19805747 1023.3713294 -126.38635346 1022.30457166 -127.05997105 1019.51387022 C-128.04997105 1019.18387022 -129.03997105 1018.85387022 -130.05997105 1018.51387022 C-130.72663771 1016.51387022 -131.39330438 1014.51387022 -132.05997105 1012.51387022 C-133.04997105 1012.18387022 -134.03997105 1011.85387022 -135.05997105 1011.51387022 C-136.708173 1008.91144608 -137.05997105 1007.65138243 -137.05997105 1004.51387022 C-138.04997105 1004.18387022 -139.03997105 1003.85387022 -140.05997105 1003.51387022 C-141.24747105 999.95137022 -141.24747105 999.95137022 -142.05997105 996.51387022 C-142.71997105 996.51387022 -143.37997105 996.51387022 -144.05997105 996.51387022 C-145.04997105 993.21387022 -146.03997105 989.91387022 -147.05997105 986.51387022 C-147.71997105 986.51387022 -148.37997105 986.51387022 -149.05997105 986.51387022 C-149.56509349 984.91130914 -150.06388731 983.3067523 -150.55997105 981.70137022 C-150.9776273 980.36138975 -150.9776273 980.36138975 -151.40372105 978.99433897 C-152.05997105 976.51387022 -152.05997105 976.51387022 -152.05997105 973.51387022 C-152.71997105 973.51387022 -153.37997105 973.51387022 -154.05997105 973.51387022 C-159.30996909 957.92760019 -158.63002668 941.81338944 -158.57384126 925.58236672 C-158.56362007 921.33979331 -158.57676333 917.09727789 -158.58681459 912.85471288 C-158.60121288 905.43157455 -158.60085307 898.00855273 -158.59062595 890.58540914 C-158.57545904 879.54666258 -158.58325015 868.50801381 -158.59545918 857.46926785 C-158.61649727 837.7506854 -158.61470645 818.03215485 -158.60314353 798.31356748 C-158.59307408 781.05669504 -158.59045787 763.7998416 -158.59523411 746.54296682 C-158.59553965 745.39746616 -158.59584519 744.2519655 -158.59615999 743.07175269 C-158.59740538 738.42156804 -158.59867899 733.7713834 -158.59999904 729.12119877 C-158.61223033 685.51399865 -158.60114882 641.90683155 -158.57961146 598.29963653 C-158.56063084 559.57472473 -158.56232703 520.84986554 -158.58145542 482.1249542 C-158.602884 438.59809034 -158.61136156 395.07125566 -158.59900637 351.54438726 C-158.59772354 346.90245464 -158.59647217 342.26052201 -158.59523411 337.61858938 C-158.5949178 336.47566175 -158.59460149 335.33273412 -158.59427559 334.15517232 C-158.58972973 316.91171415 -158.59503933 299.66827708 -158.60515232 282.42482183 C-158.61659691 262.81333 -158.61371397 243.20189811 -158.59202935 223.59041373 C-158.5802994 212.62067115 -158.57949545 201.65105844 -158.59461404 190.68131927 C-158.60360589 183.34681472 -158.59796117 176.01241395 -158.58059497 168.67792474 C-158.57111267 164.50378727 -158.56775719 160.32990715 -158.5822189 156.1557781 C-158.68460611 124.39971236 -158.68460611 124.39971236 -154.05997105 109.51387022 C-153.39997105 109.51387022 -152.73997105 109.51387022 -152.05997105 109.51387022 C-150.57497105 103.57387022 -150.57497105 103.57387022 -149.05997105 97.51387022 C-148.39997105 97.51387022 -147.73997105 97.51387022 -147.05997105 97.51387022 C-146.93622105 96.79199522 -146.81247105 96.07012022 -146.68497105 95.32637022 C-146.06947795 92.55665127 -145.1755273 90.11683482 -144.05997105 87.51387022 C-143.39997105 87.51387022 -142.73997105 87.51387022 -142.05997105 87.51387022 C-141.87434605 86.67855772 -141.87434605 86.67855772 -141.68497105 85.82637022 C-141.00020249 83.29272657 -140.06863341 80.9346599 -139.05997105 78.51387022 C-138.39997105 78.51387022 -137.73997105 78.51387022 -137.05997105 78.51387022 C-136.79184605 77.54449522 -136.52372105 76.57512022 -136.24747105 75.57637022 C-135.85559605 74.56574522 -135.46372105 73.55512022 -135.05997105 72.51387022 C-133.57497105 72.01887022 -133.57497105 72.01887022 -132.05997105 71.51387022 C-131.4492996 69.65642814 -131.4492996 69.65642814 -131.05997105 67.51387022 C-129.42360741 63.6956884 -129.42360741 63.6956884 -127.05997105 62.51387022 C-126.05354354 60.85107695 -125.05411697 59.18403537 -124.05997105 57.51387022 C-123.07901357 56.4951836 -122.08295027 55.49035038 -121.05997105 54.51387022 C-120.56497105 53.52387022 -120.56497105 53.52387022 -120.05997105 52.51387022 C-119.06997105 52.51387022 -118.07997105 52.51387022 -117.05997105 52.51387022 C-116.97747105 51.89512022 -116.89497105 51.27637022 -116.80997105 50.63887022 C-115.82171663 47.83881603 -114.65637119 47.77273089 -112.05997105 46.51387022 C-111.72997105 45.83324522 -111.39997105 45.15262022 -111.05997105 44.45137022 C-110.05997105 42.51387022 -110.05997105 42.51387022 -107.93497105 41.76387022 C-107.31622105 41.68137022 -106.69747105 41.59887022 -106.05997105 41.51387022 C-106.05997105 40.52387022 -106.05997105 39.53387022 -106.05997105 38.51387022 C-105.46184605 38.26637022 -104.86372105 38.01887022 -104.24747105 37.76387022 C-101.76242366 36.34384314 -100.74634619 34.78681063 -99.05997105 32.51387022 C-98.06997105 32.18387022 -97.07997105 31.85387022 -96.05997105 31.51387022 C-95.39997105 30.52387022 -94.73997105 29.53387022 -94.05997105 28.51387022 C-91.42031898 26.89601895 -90.2198443 26.51387022 -87.05997105 26.51387022 C-86.56497105 25.02887022 -86.56497105 25.02887022 -86.05997105 23.51387022 C-84.05997105 22.84720355 -82.05997105 22.18053688 -80.05997105 21.51387022 C-79.56497105 20.02887022 -79.56497105 20.02887022 -79.05997105 18.51387022 C-76.16438664 17.06607801 -74.31808167 16.51387022 -71.05997105 16.51387022 C-71.05997105 15.85387022 -71.05997105 15.19387022 -71.05997105 14.51387022 C-64.43497105 11.51387022 -64.43497105 11.51387022 -61.05997105 11.51387022 C-61.05997105 10.85387022 -61.05997105 10.19387022 -61.05997105 9.51387022 C-57.09997105 8.52387022 -53.13997105 7.53387022 -49.05997105 6.51387022 C-49.05997105 5.85387022 -49.05997105 5.19387022 -49.05997105 4.51387022 C-32.97761491 -0.48248991 -16.65301875 -0.05769613 0 0 Z M140.94002895 314.51387022 C140.04538067 317.19781506 139.77147504 318.98542223 139.65877895 321.75996397 C139.62196011 322.59237608 139.58514126 323.42478819 139.54720669 324.2824249 C139.51183804 325.16317686 139.47646938 326.04392881 139.44002895 326.95137022 C139.10406298 334.49058236 138.65785117 341.9996462 137.94002895 349.51387022 C137.28002895 349.51387022 136.62002895 349.51387022 135.94002895 349.51387022 C135.43625127 351.78386847 134.93712876 354.05490025 134.44002895 356.32637022 C134.16159145 357.59094053 133.88315395 358.85551084 133.59627895 360.15840147 C132.84405903 363.43473356 132.84405903 363.43473356 132.94002895 366.51387022 C132.28002895 366.51387022 131.62002895 366.51387022 130.94002895 366.51387022 C130.43366288 368.2620388 129.93518277 370.01249284 129.44002895 371.76387022 C129.16159145 372.73840147 128.88315395 373.71293272 128.59627895 374.71699522 C127.78774029 377.68410435 127.78774029 377.68410435 127.94002895 381.51387022 C127.28002895 381.51387022 126.62002895 381.51387022 125.94002895 381.51387022 C125.43490651 383.1164313 124.93611269 384.72098814 124.44002895 386.32637022 C124.0223727 387.66635069 124.0223727 387.66635069 123.59627895 389.03340147 C122.81214544 391.56960417 122.81214544 391.56960417 122.94002895 394.51387022 C122.28002895 394.51387022 121.62002895 394.51387022 120.94002895 394.51387022 C119.95002895 399.13387022 118.96002895 403.75387022 117.94002895 408.51387022 C117.28002895 408.51387022 116.62002895 408.51387022 115.94002895 408.51387022 C115.43366288 410.2620388 114.93518277 412.01249284 114.44002895 413.76387022 C114.16159145 414.73840147 113.88315395 415.71293272 113.59627895 416.71699522 C112.78774029 419.68410435 112.78774029 419.68410435 112.94002895 423.51387022 C112.28002895 423.51387022 111.62002895 423.51387022 110.94002895 423.51387022 C110.43531699 425.28336634 109.9364221 427.05452244 109.44002895 428.82637022 C109.16159145 429.81250303 108.88315395 430.79863584 108.59627895 431.81465147 C107.82190699 434.53674225 107.82190699 434.53674225 107.94002895 437.51387022 C107.28002895 437.51387022 106.62002895 437.51387022 105.94002895 437.51387022 C105.43366288 439.2620388 104.93518277 441.01249284 104.44002895 442.76387022 C104.16159145 443.73840147 103.88315395 444.71293272 103.59627895 445.71699522 C102.78774029 448.68410435 102.78774029 448.68410435 102.94002895 452.51387022 C102.28002895 452.51387022 101.62002895 452.51387022 100.94002895 452.51387022 C100.43124595 454.07353239 99.93339427 455.63676262 99.44002895 457.20137022 C99.16159145 458.0714874 98.88315395 458.94160459 98.59627895 459.83808897 C97.9415209 462.50778698 97.82171401 464.77783705 97.94002895 467.51387022 C97.28002895 467.51387022 96.62002895 467.51387022 95.94002895 467.51387022 C95.43666129 469.13783019 94.9374392 470.76307563 94.44002895 472.38887022 C94.16159145 473.29379209 93.88315395 474.19871397 93.59627895 475.13105772 C92.85152102 477.42331669 92.85152102 477.42331669 92.94002895 479.51387022 C92.28002895 479.51387022 91.62002895 479.51387022 90.94002895 479.51387022 C90.43567201 481.45024062 89.93669022 483.38801167 89.44002895 485.32637022 C89.16159145 486.40531553 88.88315395 487.48426084 88.59627895 488.59590147 C87.83031947 491.50320997 87.83031947 491.50320997 87.94002895 494.51387022 C87.28002895 494.51387022 86.62002895 494.51387022 85.94002895 494.51387022 C85.43124595 496.07353239 84.93339427 497.63676262 84.44002895 499.20137022 C84.16159145 500.0714874 83.88315395 500.94160459 83.59627895 501.83808897 C82.9415209 504.50778698 82.82171401 506.77783705 82.94002895 509.51387022 C82.28002895 509.51387022 81.62002895 509.51387022 80.94002895 509.51387022 C78.33976146 516.31955157 78.33976146 516.31955157 77.94002895 523.51387022 C77.28002895 523.51387022 76.62002895 523.51387022 75.94002895 523.51387022 C75.43310203 525.09499942 74.93476452 526.67888405 74.44002895 528.26387022 C74.16159145 529.14558897 73.88315395 530.02730772 73.59627895 530.93574522 C72.7755761 533.71654551 72.7755761 533.71654551 72.94002895 537.51387022 C72.28002895 537.51387022 71.62002895 537.51387022 70.94002895 537.51387022 C70.43531699 539.28336634 69.9364221 541.05452244 69.44002895 542.82637022 C69.16159145 543.81250303 68.88315395 544.79863584 68.59627895 545.81465147 C67.82190699 548.53674225 67.82190699 548.53674225 67.94002895 551.51387022 C67.28002895 551.51387022 66.62002895 551.51387022 65.94002895 551.51387022 C65.43124595 553.07353239 64.93339427 554.63676262 64.44002895 556.20137022 C64.16159145 557.0714874 63.88315395 557.94160459 63.59627895 558.83808897 C62.9415209 561.50778698 62.82171401 563.77783705 62.94002895 566.51387022 C62.28002895 566.51387022 61.62002895 566.51387022 60.94002895 566.51387022 C60.43490651 568.1164313 59.93611269 569.72098814 59.44002895 571.32637022 C59.16159145 572.21969053 58.88315395 573.11301084 58.59627895 574.03340147 C57.81214544 576.56960417 57.81214544 576.56960417 57.94002895 579.51387022 C57.28002895 579.51387022 56.62002895 579.51387022 55.94002895 579.51387022 C55.43310203 581.09499942 54.93476452 582.67888405 54.44002895 584.26387022 C54.16159145 585.14558897 53.88315395 586.02730772 53.59627895 586.93574522 C52.7755761 589.71654551 52.7755761 589.71654551 52.94002895 593.51387022 C52.28002895 593.51387022 51.62002895 593.51387022 50.94002895 593.51387022 C50.43531699 595.28336634 49.9364221 597.05452244 49.44002895 598.82637022 C49.16159145 599.81250303 48.88315395 600.79863584 48.59627895 601.81465147 C47.82190699 604.53674225 47.82190699 604.53674225 47.94002895 607.51387022 C47.28002895 607.51387022 46.62002895 607.51387022 45.94002895 607.51387022 C45.43366288 609.2620388 44.93518277 611.01249284 44.44002895 612.76387022 C44.16159145 613.73840147 43.88315395 614.71293272 43.59627895 615.71699522 C42.78774029 618.68410435 42.78774029 618.68410435 42.94002895 622.51387022 C42.28002895 622.51387022 41.62002895 622.51387022 40.94002895 622.51387022 C40.43124595 624.07353239 39.93339427 625.63676262 39.44002895 627.20137022 C39.16159145 628.0714874 38.88315395 628.94160459 38.59627895 629.83808897 C37.9415209 632.50778698 37.82171401 634.77783705 37.94002895 637.51387022 C37.28002895 637.51387022 36.62002895 637.51387022 35.94002895 637.51387022 C34.95002895 641.47387022 33.96002895 645.43387022 32.94002895 649.51387022 C32.28002895 649.51387022 31.62002895 649.51387022 30.94002895 649.51387022 C30.43567201 651.45024062 29.93669022 653.38801167 29.44002895 655.32637022 C29.16159145 656.40531553 28.88315395 657.48426084 28.59627895 658.59590147 C27.83031947 661.50320997 27.83031947 661.50320997 27.94002895 664.51387022 C27.28002895 664.51387022 26.62002895 664.51387022 25.94002895 664.51387022 C24.95002895 669.13387022 23.96002895 673.75387022 22.94002895 678.51387022 C22.28002895 678.51387022 21.62002895 678.51387022 20.94002895 678.51387022 C20.43366288 680.2620388 19.93518277 682.01249284 19.44002895 683.76387022 C19.16159145 684.73840147 18.88315395 685.71293272 18.59627895 686.71699522 C17.78774029 689.68410435 17.78774029 689.68410435 17.94002895 693.51387022 C17.28002895 693.51387022 16.62002895 693.51387022 15.94002895 693.51387022 C15.43310203 695.09499942 14.93476452 696.67888405 14.44002895 698.26387022 C14.16159145 699.14558897 13.88315395 700.02730772 13.59627895 700.93574522 C12.7755761 703.71654551 12.7755761 703.71654551 12.94002895 707.51387022 C12.28002895 707.51387022 11.62002895 707.51387022 10.94002895 707.51387022 C10.43531699 709.28336634 9.9364221 711.05452244 9.44002895 712.82637022 C9.0223727 714.30556944 9.0223727 714.30556944 8.59627895 715.81465147 C7.82190699 718.53674225 7.82190699 718.53674225 7.94002895 721.51387022 C7.28002895 721.51387022 6.62002895 721.51387022 5.94002895 721.51387022 C5.43366288 723.2620388 4.93518277 725.01249284 4.44002895 726.76387022 C4.16159145 727.73840147 3.88315395 728.71293272 3.59627895 729.71699522 C2.78774029 732.68410435 2.78774029 732.68410435 2.94002895 736.51387022 C2.28002895 736.51387022 1.62002895 736.51387022 0.94002895 736.51387022 C0.43490651 738.1164313 -0.06388731 739.72098814 -0.55997105 741.32637022 C-0.9776273 742.66635069 -0.9776273 742.66635069 -1.40372105 744.03340147 C-2.18785456 746.56960417 -2.18785456 746.56960417 -2.05997105 749.51387022 C-2.71997105 749.51387022 -3.37997105 749.51387022 -4.05997105 749.51387022 C-4.56432799 751.45024062 -5.06330978 753.38801167 -5.55997105 755.32637022 C-5.83840855 756.40531553 -6.11684605 757.48426084 -6.40372105 758.59590147 C-7.16968053 761.50320997 -7.16968053 761.50320997 -7.05997105 764.51387022 C-7.71997105 764.51387022 -8.37997105 764.51387022 -9.05997105 764.51387022 C-9.42234368 766.13706001 -9.77462261 767.76250602 -10.12247105 769.38887022 C-10.31969761 770.29379209 -10.51692417 771.19871397 -10.7201273 772.13105772 C-11.29199261 774.52401146 -11.29199261 774.52401146 -10.05997105 776.51387022 C-6.29299654 777.76952839 -2.78020717 777.65331527 1.14339809 777.64326475 C2.39744694 777.64589323 2.39744694 777.64589323 3.6768301 777.64857481 C6.44296952 777.65297964 9.20904512 777.65006039 11.9751852 777.64668272 C13.89424763 777.64735609 15.81330996 777.64832639 17.73237209 777.64958189 C21.75480569 777.65105695 25.77721708 777.64891019 29.79964809 777.64424131 C34.96384329 777.6385403 40.12798657 777.64182659 45.29217987 777.64781377 C49.25460307 777.65142126 53.21701388 777.65028 57.17943745 777.64768598 C59.08409678 777.64701743 60.98875723 777.64784263 62.89341526 777.65016554 C65.55099209 777.65269553 68.20848388 777.6488467 70.86605434 777.64326475 C71.65831417 777.64528898 72.450574 777.64731321 73.2668417 777.64939878 C77.2327807 777.719269 77.2327807 777.719269 80.94002895 776.51387022 C80.94002895 775.85387022 80.94002895 775.19387022 80.94002895 774.51387022 C81.93002895 774.18387022 82.92002895 773.85387022 83.94002895 773.51387022 C85.46162909 769.91008041 85.94002895 767.46166336 85.94002895 763.51387022 C86.60002895 763.51387022 87.26002895 763.51387022 87.94002895 763.51387022 C88.44591043 761.59874749 88.94451287 759.681701 89.44002895 757.76387022 C89.71846645 756.69652647 89.99690395 755.62918272 90.28377895 754.52949522 C91.08178884 751.3768172 91.08178884 751.3768172 90.94002895 747.51387022 C91.60002895 747.51387022 92.26002895 747.51387022 92.94002895 747.51387022 C93.44407704 745.41066959 93.94313403 743.3062723 94.44002895 741.20137022 C94.71846645 740.0296124 94.99690395 738.85785459 95.28377895 737.65058897 C96.04241979 734.55857177 96.04241979 734.55857177 95.94002895 731.51387022 C96.60002895 731.51387022 97.26002895 731.51387022 97.94002895 731.51387022 C98.44548931 729.43185494 98.94419731 727.34819955 99.44002895 725.26387022 C99.71846645 724.10371397 99.99690395 722.94355772 100.28377895 721.74824522 C101.07259348 718.4105631 101.07259348 718.4105631 100.94002895 714.51387022 C101.60002895 714.51387022 102.26002895 714.51387022 102.94002895 714.51387022 C103.44591043 712.59874749 103.94451287 710.681701 104.44002895 708.76387022 C104.71846645 707.69652647 104.99690395 706.62918272 105.28377895 705.52949522 C106.08178884 702.3768172 106.08178884 702.3768172 105.94002895 698.51387022 C106.60002895 698.51387022 107.26002895 698.51387022 107.94002895 698.51387022 C108.44591043 696.59874749 108.94451287 694.681701 109.44002895 692.76387022 C109.71846645 691.69652647 109.99690395 690.62918272 110.28377895 689.52949522 C111.08178884 686.3768172 111.08178884 686.3768172 110.94002895 682.51387022 C111.60002895 682.51387022 112.26002895 682.51387022 112.94002895 682.51387022 C113.44407704 680.41066959 113.94313403 678.3062723 114.44002895 676.20137022 C114.71846645 675.0296124 114.99690395 673.85785459 115.28377895 672.65058897 C116.04241979 669.55857177 116.04241979 669.55857177 115.94002895 666.51387022 C116.60002895 666.51387022 117.26002895 666.51387022 117.94002895 666.51387022 C117.94002895 664.86387022 117.94002895 663.21387022 117.94002895 661.51387022 C174.04002895 661.51387022 230.14002895 661.51387022 287.94002895 661.51387022 C289.42502895 667.94887022 289.42502895 667.94887022 290.94002895 674.51387022 C291.60002895 674.51387022 292.26002895 674.51387022 292.94002895 674.51387022 C293.06377895 675.68949522 293.18752895 676.86512022 293.31502895 678.07637022 C293.8043883 682.05507447 294.74554945 685.6915358 295.94002895 689.51387022 C296.60002895 689.51387022 297.26002895 689.51387022 297.94002895 689.51387022 C298.06377895 690.68949522 298.18752895 691.86512022 298.31502895 693.07637022 C298.8043883 697.05507447 299.74554945 700.6915358 300.94002895 704.51387022 C301.60002895 704.51387022 302.26002895 704.51387022 302.94002895 704.51387022 C302.98901333 705.07074522 303.0379977 705.62762022 303.08846645 706.20137022 C303.60558472 711.47954287 304.54465359 716.39749387 305.94002895 721.51387022 C306.60002895 721.51387022 307.26002895 721.51387022 307.94002895 721.51387022 C308.07280239 722.28472959 308.20557583 723.05558897 308.3423727 723.84980772 C308.51897427 724.85269834 308.69557583 725.85558897 308.87752895 726.88887022 C309.05155239 727.88660459 309.22557583 728.88433897 309.4048727 729.91230772 C309.81714957 732.48296678 309.81714957 732.48296678 310.94002895 734.51387022 C311.60002895 734.51387022 312.26002895 734.51387022 312.94002895 734.51387022 C313.06377895 735.64824522 313.18752895 736.78262022 313.31502895 737.95137022 C313.88231978 742.54724807 314.86687684 747.0128827 315.94002895 751.51387022 C316.60002895 751.51387022 317.26002895 751.51387022 317.94002895 751.51387022 C318.07280239 752.26152647 318.20557583 753.00918272 318.3423727 753.77949522 C318.51897427 754.76433897 318.69557583 755.74918272 318.87752895 756.76387022 C319.05155239 757.73840147 319.22557583 758.71293272 319.4048727 759.71699522 C319.84382624 762.01108816 320.34351488 764.25678993 320.94002895 766.51387022 C321.60002895 766.51387022 322.26002895 766.51387022 322.94002895 766.51387022 C323.06377895 767.60699522 323.18752895 768.70012022 323.31502895 769.82637022 C323.69467696 773.58768824 323.69467696 773.58768824 325.94002895 776.51387022 C329.94542706 777.84900292 333.79363975 777.65293209 337.96956997 777.64326475 C338.89338467 777.64501707 339.81719936 777.64676939 340.76900845 777.64857481 C343.82733638 777.65298169 346.88560666 777.65005964 349.9439352 777.64668272 C352.06477984 777.64735603 354.1856244 777.64832629 356.30646877 777.64958189 C360.75260763 777.65105723 365.19872641 777.6489093 369.64486294 777.64424131 C375.35386386 777.63854066 381.06281781 777.6418262 386.77181702 777.64781377 C391.1511481 777.65142081 395.53046797 777.6502802 399.90979938 777.64768598 C402.01541696 777.64701729 404.12103555 777.64784314 406.22665195 777.65016554 C409.16442304 777.65269475 412.10211714 777.64884778 415.03988247 777.64326475 C416.35450718 777.64630109 416.35450718 777.64630109 417.69568996 777.64939878 C421.95267411 777.75753201 421.95267411 777.75753201 425.94002895 776.51387022 C426.34217125 770.34768841 424.90821231 765.33641265 422.94002895 759.51387022 C422.28002895 759.51387022 421.62002895 759.51387022 420.94002895 759.51387022 C420.80725552 758.8267999 420.67448208 758.13972959 420.5376852 757.43183897 C420.36108364 756.53078428 420.18448208 755.62972959 420.00252895 754.70137022 C419.82850552 753.8080499 419.65448208 752.91472959 419.4751852 751.99433897 C418.96261742 749.39989851 418.96261742 749.39989851 417.94002895 746.51387022 C417.28002895 746.51387022 416.62002895 746.51387022 415.94002895 746.51387022 C415.81627895 745.33824522 415.69252895 744.16262022 415.56502895 742.95137022 C415.07566961 738.97266596 414.13450846 735.33620463 412.94002895 731.51387022 C412.28002895 731.51387022 411.62002895 731.51387022 410.94002895 731.51387022 C410.80725552 730.8267999 410.67448208 730.13972959 410.5376852 729.43183897 C410.36108364 728.53078428 410.18448208 727.62972959 410.00252895 726.70137022 C409.82850552 725.8080499 409.65448208 724.91472959 409.4751852 723.99433897 C408.96261742 721.39989851 408.96261742 721.39989851 407.94002895 718.51387022 C407.28002895 718.51387022 406.62002895 718.51387022 405.94002895 718.51387022 C405.81627895 717.52387022 405.69252895 716.53387022 405.56502895 715.51387022 C404.98808168 711.42506998 403.99039241 707.50525135 402.94002895 703.51387022 C402.28002895 703.51387022 401.62002895 703.51387022 400.94002895 703.51387022 C399.95002895 698.89387022 398.96002895 694.27387022 397.94002895 689.51387022 C397.28002895 689.51387022 396.62002895 689.51387022 395.94002895 689.51387022 C394.45502895 683.07887022 394.45502895 683.07887022 392.94002895 676.51387022 C392.28002895 676.51387022 391.62002895 676.51387022 390.94002895 676.51387022 C390.80725552 675.83840147 390.67448208 675.16293272 390.5376852 674.46699522 C390.36108364 673.57496397 390.18448208 672.68293272 390.00252895 671.76387022 C389.82850552 670.88215147 389.65448208 670.00043272 389.4751852 669.09199522 C389.01634407 666.88151968 388.50666822 664.69874954 387.94002895 662.51387022 C387.28002895 662.51387022 386.62002895 662.51387022 385.94002895 662.51387022 C385.81627895 661.68887022 385.69252895 660.86387022 385.56502895 660.01387022 C384.86900741 656.11614955 383.93121947 652.34647353 382.94002895 648.51387022 C382.28002895 648.51387022 381.62002895 648.51387022 380.94002895 648.51387022 C380.81627895 647.50324522 380.69252895 646.49262022 380.56502895 645.45137022 C379.9591756 641.6344941 379.06808984 638.1988691 377.94002895 634.51387022 C377.28002895 634.51387022 376.62002895 634.51387022 375.94002895 634.51387022 C375.80725552 633.76621397 375.67448208 633.01855772 375.5376852 632.24824522 C375.36108364 631.26340147 375.18448208 630.27855772 375.00252895 629.26387022 C374.82850552 628.28933897 374.65448208 627.31480772 374.4751852 626.31074522 C374.03623166 624.01665227 373.53654303 621.77095051 372.94002895 619.51387022 C372.28002895 619.51387022 371.62002895 619.51387022 370.94002895 619.51387022 C369.95002895 615.55387022 368.96002895 611.59387022 367.94002895 607.51387022 C367.28002895 607.51387022 366.62002895 607.51387022 365.94002895 607.51387022 C365.81627895 606.33824522 365.69252895 605.16262022 365.56502895 603.95137022 C365.07566961 599.97266596 364.13450846 596.33620463 362.94002895 592.51387022 C362.28002895 592.51387022 361.62002895 592.51387022 360.94002895 592.51387022 C360.81627895 591.68887022 360.69252895 590.86387022 360.56502895 590.01387022 C359.86900741 586.11614955 358.93121947 582.34647353 357.94002895 578.51387022 C357.28002895 578.51387022 356.62002895 578.51387022 355.94002895 578.51387022 C354.95002895 573.89387022 353.96002895 569.27387022 352.94002895 564.51387022 C352.28002895 564.51387022 351.62002895 564.51387022 350.94002895 564.51387022 C350.80725552 563.8267999 350.67448208 563.13972959 350.5376852 562.43183897 C350.36108364 561.53078428 350.18448208 560.62972959 350.00252895 559.70137022 C349.7414938 558.36138975 349.7414938 558.36138975 349.4751852 556.99433897 C348.96261742 554.39989851 348.96261742 554.39989851 347.94002895 551.51387022 C347.28002895 551.51387022 346.62002895 551.51387022 345.94002895 551.51387022 C345.81627895 550.31762022 345.69252895 549.12137022 345.56502895 547.88887022 C345.11677842 544.23790209 344.23556058 540.96862123 342.94002895 537.51387022 C342.28002895 537.51387022 341.62002895 537.51387022 340.94002895 537.51387022 C340.81627895 536.31762022 340.69252895 535.12137022 340.56502895 533.88887022 C340.11677842 530.23790209 339.23556058 526.96862123 337.94002895 523.51387022 C337.28002895 523.51387022 336.62002895 523.51387022 335.94002895 523.51387022 C335.81627895 522.50324522 335.69252895 521.49262022 335.56502895 520.45137022 C334.9591756 516.6344941 334.06808984 513.1988691 332.94002895 509.51387022 C332.28002895 509.51387022 331.62002895 509.51387022 330.94002895 509.51387022 C330.80725552 508.76621397 330.67448208 508.01855772 330.5376852 507.24824522 C330.36108364 506.26340147 330.18448208 505.27855772 330.00252895 504.26387022 C329.7414938 502.80207334 329.7414938 502.80207334 329.4751852 501.31074522 C329.03623166 499.01665227 328.53654303 496.77095051 327.94002895 494.51387022 C327.28002895 494.51387022 326.62002895 494.51387022 325.94002895 494.51387022 C324.95002895 490.22387022 323.96002895 485.93387022 322.94002895 481.51387022 C322.28002895 481.51387022 321.62002895 481.51387022 320.94002895 481.51387022 C320.81627895 480.50324522 320.69252895 479.49262022 320.56502895 478.45137022 C319.9591756 474.6344941 319.06808984 471.1988691 317.94002895 467.51387022 C317.28002895 467.51387022 316.62002895 467.51387022 315.94002895 467.51387022 C315.81627895 466.31762022 315.69252895 465.12137022 315.56502895 463.88887022 C315.11677842 460.23790209 314.23556058 456.96862123 312.94002895 453.51387022 C312.28002895 453.51387022 311.62002895 453.51387022 310.94002895 453.51387022 C309.95002895 448.56387022 308.96002895 443.61387022 307.94002895 438.51387022 C307.28002895 438.51387022 306.62002895 438.51387022 305.94002895 438.51387022 C304.95002895 434.55387022 303.96002895 430.59387022 302.94002895 426.51387022 C302.28002895 426.51387022 301.62002895 426.51387022 300.94002895 426.51387022 C300.81627895 425.31762022 300.69252895 424.12137022 300.56502895 422.88887022 C300.11677842 419.23790209 299.23556058 415.96862123 297.94002895 412.51387022 C297.28002895 412.51387022 296.62002895 412.51387022 295.94002895 412.51387022 C295.81627895 411.33824522 295.69252895 410.16262022 295.56502895 408.95137022 C295.07566961 404.97266596 294.13450846 401.33620463 292.94002895 397.51387022 C292.28002895 397.51387022 291.62002895 397.51387022 290.94002895 397.51387022 C290.80725552 396.83840147 290.67448208 396.16293272 290.5376852 395.46699522 C290.36108364 394.57496397 290.18448208 393.68293272 290.00252895 392.76387022 C289.7414938 391.44129209 289.7414938 391.44129209 289.4751852 390.09199522 C289.01634407 387.88151968 288.50666822 385.69874954 287.94002895 383.51387022 C287.28002895 383.51387022 286.62002895 383.51387022 285.94002895 383.51387022 C284.45502895 376.58387022 284.45502895 376.58387022 282.94002895 369.51387022 C282.28002895 369.51387022 281.62002895 369.51387022 280.94002895 369.51387022 C280.80725552 368.8267999 280.67448208 368.13972959 280.5376852 367.43183897 C280.36108364 366.53078428 280.18448208 365.62972959 280.00252895 364.70137022 C279.7414938 363.36138975 279.7414938 363.36138975 279.4751852 361.99433897 C278.96261742 359.39989851 278.96261742 359.39989851 277.94002895 356.51387022 C277.28002895 356.51387022 276.62002895 356.51387022 275.94002895 356.51387022 C275.81627895 355.31762022 275.69252895 354.12137022 275.56502895 352.88887022 C275.11677842 349.23790209 274.23556058 345.96862123 272.94002895 342.51387022 C272.28002895 342.51387022 271.62002895 342.51387022 270.94002895 342.51387022 C270.81627895 341.31762022 270.69252895 340.12137022 270.56502895 338.88887022 C270.11677842 335.23790209 269.23556058 331.96862123 267.94002895 328.51387022 C267.28002895 328.51387022 266.62002895 328.51387022 265.94002895 328.51387022 C265.81627895 327.50324522 265.69252895 326.49262022 265.56502895 325.45137022 C264.9591756 321.6344941 264.06808984 318.1988691 262.94002895 314.51387022 C259.92691995 313.64087227 257.24596705 313.38829184 254.11335354 313.38688657 C253.14456264 313.38406675 252.17577175 313.38124693 251.17762356 313.37834165 C250.12138287 313.38036588 249.06514217 313.38239011 247.97689419 313.38447569 C246.85946835 313.38272337 245.7420425 313.38097105 244.59075527 313.37916563 C240.893362 313.37476063 237.19601647 313.37768018 233.4986227 313.38105772 C230.93319801 313.38038434 228.36777338 313.37941403 225.8023489 313.37815855 C220.42481425 313.37668345 215.0472976 313.3787351 209.66976528 313.38349912 C203.45199478 313.3889439 197.23425706 313.38717625 191.01648735 313.38167272 C185.03426608 313.37658959 179.05206086 313.37712541 173.06983738 313.38005445 C170.52405461 313.38072285 167.978271 313.37989832 165.4324892 313.3775749 C161.87955977 313.37504384 158.32669387 313.37889533 154.77376919 313.38447569 C153.71550426 313.38245145 152.65723934 313.38042722 151.56690578 313.37834165 C150.60093472 313.38116148 149.63496365 313.3839813 148.63972073 313.38688657 C147.79963183 313.3872636 146.95954294 313.38764063 146.09399681 313.38802908 C143.7550328 313.43089174 143.7550328 313.43089174 140.94002895 314.51387022 Z M612.94002895 414.51387022 C612.94002895 415.17387022 612.94002895 415.83387022 612.94002895 416.51387022 C612.24522427 416.47906553 611.55041958 416.44426084 610.8345602 416.40840147 C600.02355206 416.120656 589.58896334 417.81028236 578.94002895 419.51387022 C578.94002895 420.17387022 578.94002895 420.83387022 578.94002895 421.51387022 C578.28776333 421.56285459 577.6354977 421.61183897 576.96346645 421.66230772 C572.00723043 422.08629251 567.60983444 422.67052595 562.94002895 424.51387022 C562.94002895 425.17387022 562.94002895 425.83387022 562.94002895 426.51387022 C561.90877895 426.63762022 560.87752895 426.76137022 559.81502895 426.88887022 C556.31886049 427.45276836 553.25605268 428.3006908 549.94002895 429.51387022 C549.94002895 430.17387022 549.94002895 430.83387022 549.94002895 431.51387022 C546.97002895 432.50387022 544.00002895 433.49387022 540.94002895 434.51387022 C540.94002895 435.17387022 540.94002895 435.83387022 540.94002895 436.51387022 C539.99127895 436.82324522 539.04252895 437.13262022 538.06502895 437.45137022 C535.07922487 438.38781764 535.07922487 438.38781764 532.94002895 439.51387022 C532.94002895 440.17387022 532.94002895 440.83387022 532.94002895 441.51387022 C532.36252895 441.63762022 531.78502895 441.76137022 531.19002895 441.88887022 C528.88903254 442.52803589 526.9989328 443.30692658 524.94002895 444.51387022 C524.61002895 445.17387022 524.28002895 445.83387022 523.94002895 446.51387022 C522.27336229 447.51387022 520.60669562 448.51387022 518.94002895 449.51387022 C518.44502895 450.50387022 518.44502895 450.50387022 517.94002895 451.51387022 C517.09440395 452.00887022 516.24877895 452.50387022 515.37752895 453.01387022 C514.57315395 453.50887022 513.76877895 454.00387022 512.94002895 454.51387022 C512.94002895 455.17387022 512.94002895 455.83387022 512.94002895 456.51387022 C512.30065395 456.78199522 511.66127895 457.05012022 511.00252895 457.32637022 C508.60871209 458.40054774 508.60871209 458.40054774 507.94002895 461.51387022 C506.60669562 462.18053688 505.27336229 462.84720355 503.94002895 463.51387022 C503.61002895 464.50387022 503.28002895 465.49387022 502.94002895 466.51387022 C501.60669562 467.18053688 500.27336229 467.84720355 498.94002895 468.51387022 C498.61002895 469.50387022 498.28002895 470.49387022 497.94002895 471.51387022 C497.28002895 471.51387022 496.62002895 471.51387022 495.94002895 471.51387022 C494.91390947 473.16458418 493.91694752 474.83357028 492.94002895 476.51387022 C492.42440395 477.00887022 491.90877895 477.50387022 491.37752895 478.01387022 C489.51263001 479.95985172 488.82526637 481.99434834 487.94002895 484.51387022 C487.28002895 484.51387022 486.62002895 484.51387022 485.94002895 484.51387022 C483.89833411 487.41935904 482.94002895 488.91529067 482.94002895 492.51387022 C481.45502895 493.00887022 481.45502895 493.00887022 479.94002895 493.51387022 C479.23791002 495.16591477 478.57031482 496.83310791 477.94002895 498.51387022 C476.95002895 499.00887022 476.95002895 499.00887022 475.94002895 499.51387022 C475.02971624 501.85773831 475.02971624 501.85773831 474.31502895 504.57637022 C474.05463833 505.49547178 473.7942477 506.41457334 473.52596645 507.36152647 C473.33260708 508.0717999 473.1392477 508.78207334 472.94002895 509.51387022 C472.28002895 509.51387022 471.62002895 509.51387022 470.94002895 509.51387022 C470.43442987 510.94941047 469.93575405 512.38739041 469.44002895 513.82637022 C469.16159145 514.62687803 468.88315395 515.42738584 468.59627895 516.25215147 C467.80069788 518.60156443 467.80069788 518.60156443 467.94002895 521.51387022 C467.28002895 521.51387022 466.62002895 521.51387022 465.94002895 521.51387022 C465.43124595 523.07353239 464.93339427 524.63676262 464.44002895 526.20137022 C464.16159145 527.0714874 463.88315395 527.94160459 463.59627895 528.83808897 C462.9415209 531.50778698 462.82171401 533.77783705 462.94002895 536.51387022 C462.28002895 536.51387022 461.62002895 536.51387022 460.94002895 536.51387022 C460.43414748 538.42899294 459.93554504 540.34603943 459.44002895 542.26387022 C459.16159145 543.33121397 458.88315395 544.39855772 458.59627895 545.49824522 C457.79826907 548.65092323 457.79826907 548.65092323 457.94002895 552.51387022 C457.28002895 552.51387022 456.62002895 552.51387022 455.94002895 552.51387022 C453.26111563 569.43294662 453.26111563 569.43294662 452.94002895 586.51387022 C452.28002895 586.51387022 451.62002895 586.51387022 450.94002895 586.51387022 C450.94002895 598.39387022 450.94002895 610.27387022 450.94002895 622.51387022 C451.60002895 622.51387022 452.26002895 622.51387022 452.94002895 622.51387022 C452.92262661 623.10087705 452.90522427 623.68788389 452.88729458 624.29267881 C452.77644946 631.03443708 453.45280017 637.47729939 454.44002895 644.13887022 C454.58311489 645.1430499 454.72620083 646.14722959 454.8736227 647.18183897 C455.22290461 649.6268123 455.57845619 652.07068972 455.94002895 654.51387022 C456.60002895 654.51387022 457.26002895 654.51387022 457.94002895 654.51387022 C458.06377895 655.81324522 458.18752895 657.11262022 458.31502895 658.45137022 C458.83866223 663.23236974 459.80316731 667.84501122 460.94002895 672.51387022 C461.60002895 672.51387022 462.26002895 672.51387022 462.94002895 672.51387022 C463.06377895 673.52449522 463.18752895 674.53512022 463.31502895 675.57637022 C463.92088231 679.39324634 464.81196807 682.82887133 465.94002895 686.51387022 C466.60002895 686.51387022 467.26002895 686.51387022 467.94002895 686.51387022 C468.93002895 689.81387022 469.92002895 693.11387022 470.94002895 696.51387022 C471.60002895 696.51387022 472.26002895 696.51387022 472.94002895 696.51387022 C473.12178677 697.20094053 473.30354458 697.88801084 473.4908102 698.59590147 C473.74217739 699.49695615 473.99354458 700.39801084 474.25252895 701.32637022 C474.61797817 702.66635069 474.61797817 702.66635069 474.9908102 704.03340147 C475.9744819 706.60390159 476.92132131 707.7099187 478.94002895 709.51387022 C480.12752895 711.70137022 480.12752895 711.70137022 480.94002895 713.51387022 C481.60002895 713.51387022 482.26002895 713.51387022 482.94002895 713.51387022 C483.06377895 714.09137022 483.18752895 714.66887022 483.31502895 715.26387022 C484.44788007 719.34213425 485.34585124 721.11775174 488.94002895 723.51387022 C489.25842739 724.15195615 489.57682583 724.79004209 489.9048727 725.44746397 C491.10467334 727.84253769 492.40576013 728.93484974 494.50252895 730.57637022 C497.13440548 732.63919236 497.84435435 733.22684639 498.94002895 736.51387022 C499.64127895 736.90574522 500.34252895 737.29762022 501.06502895 737.70137022 C504.52527953 739.88283254 506.64355331 742.51108172 509.1939352 745.67402647 C511.01111086 747.58876861 512.5560223 748.44057262 514.94002895 749.51387022 C515.96022469 750.49325812 516.961527 751.49282471 517.94002895 752.51387022 C520.75512889 754.79122032 520.75512889 754.79122032 523.94002895 754.51387022 C524.43502895 755.99887022 524.43502895 755.99887022 524.94002895 757.51387022 C527.94850314 758.73907286 527.94850314 758.73907286 530.94002895 759.51387022 C530.94002895 760.17387022 530.94002895 760.83387022 530.94002895 761.51387022 C535.39502895 762.99887022 535.39502895 762.99887022 539.94002895 764.51387022 C539.94002895 765.17387022 539.94002895 765.83387022 539.94002895 766.51387022 C543.57002895 767.50387022 547.20002895 768.49387022 550.94002895 769.51387022 C550.94002895 770.17387022 550.94002895 770.83387022 550.94002895 771.51387022 C552.49969113 772.02265322 554.06292136 772.5205049 555.62752895 773.01387022 C556.49764614 773.29230772 557.36776333 773.57074522 558.2642477 773.85762022 C560.93394572 774.51237827 563.20399579 774.63218516 565.94002895 774.51387022 C565.94002895 775.17387022 565.94002895 775.83387022 565.94002895 776.51387022 C568.1465797 777.02167916 570.355365 777.51978387 572.56502895 778.01387022 C573.79479458 778.29230772 575.0245602 778.57074522 576.29159145 778.85762022 C579.61155124 779.45478643 582.57911346 779.63796556 585.94002895 779.51387022 C585.94002895 780.17387022 585.94002895 780.83387022 585.94002895 781.51387022 C588.16849304 781.83134159 590.39785542 782.14250745 592.62752895 782.45137022 C594.48957973 782.71240537 594.48957973 782.71240537 596.3892477 782.97871397 C606.56348229 784.25372549 616.72915334 784.67163095 626.9751852 784.68183897 C628.77420536 784.68683157 628.77420536 784.68683157 630.60956936 784.69192503 C633.13142118 784.69695241 635.65327955 784.69933466 638.17513638 784.69917295 C641.96862771 784.70135075 645.76182354 784.71952839 649.55526333 784.73847959 C672.88685301 784.81891455 672.88685301 784.81891455 695.94002895 781.51387022 C695.94002895 780.85387022 695.94002895 780.19387022 695.94002895 779.51387022 C696.86815395 779.57574522 697.79627895 779.63762022 698.75252895 779.70137022 C704.02379856 779.73390892 708.9397877 778.03293085 713.94002895 776.51387022 C713.94002895 775.85387022 713.94002895 775.19387022 713.94002895 774.51387022 C714.95065395 774.39012022 715.96127895 774.26637022 717.00252895 774.13887022 C720.81940507 773.53301686 724.25503007 772.6419311 727.94002895 771.51387022 C727.94002895 770.85387022 727.94002895 770.19387022 727.94002895 769.51387022 C728.98803677 769.25863584 728.98803677 769.25863584 730.05721645 768.99824522 C730.96729458 768.75590147 731.8773727 768.51355772 732.81502895 768.26387022 C733.71995083 768.03183897 734.6248727 767.79980772 735.55721645 767.56074522 C737.99125782 766.73642712 737.99125782 766.73642712 739.07476406 764.90138242 C740.26517158 761.61670913 740.17896035 758.75969979 740.16707973 755.2667999 C740.16751781 754.18327741 740.16751781 754.18327741 740.16796474 753.07786558 C740.16657457 750.69703539 740.15102829 748.31652054 740.13534145 745.93574522 C740.13161021 744.28236561 740.12876376 742.62898379 740.12676601 740.97560117 C740.11913833 736.62887948 740.09949728 732.28229193 740.07735805 727.93562315 C740.05688099 723.4981823 740.04776032 719.06071972 740.0376852 714.62324522 C740.01625056 705.92005873 739.98212508 697.21698117 739.94002895 688.51387022 C738.29002895 688.84387022 736.64002895 689.17387022 734.94002895 689.51387022 C734.94002895 690.17387022 734.94002895 690.83387022 734.94002895 691.51387022 C734.11502895 691.63762022 733.29002895 691.76137022 732.44002895 691.88887022 C728.54230829 692.58489176 724.77263227 693.5226797 720.94002895 694.51387022 C720.94002895 695.17387022 720.94002895 695.83387022 720.94002895 696.51387022 C707.30677155 698.62548753 707.30677155 698.62548753 700.94002895 699.51387022 C700.94002895 700.17387022 700.94002895 700.83387022 700.94002895 701.51387022 C700.15241177 701.57445615 699.36479458 701.63504209 698.5533102 701.69746397 C696.91942348 701.82314756 696.91942348 701.82314756 695.25252895 701.95137022 C693.55853813 702.0816772 691.86451458 702.21158753 690.17025356 702.33833311 C688.49054515 702.47054004 686.81179925 702.61506246 685.13363247 702.7655792 C676.50125842 703.50549698 667.91375094 703.71062737 659.25252895 703.70137022 C658.55469295 703.70209531 657.85685696 703.70282041 657.13787441 703.70356748 C647.42322553 703.70245538 637.8689606 703.33103245 628.2408102 701.95137022 C625.41672261 701.57705328 622.78157268 701.42693962 619.94002895 701.51387022 C619.94002895 700.85387022 619.94002895 700.19387022 619.94002895 699.51387022 C612.02002895 698.02887022 612.02002895 698.02887022 603.94002895 696.51387022 C603.94002895 695.85387022 603.94002895 695.19387022 603.94002895 694.51387022 C602.52605993 694.00629159 601.10871167 693.50812097 599.69002895 693.01387022 C598.9011227 692.73543272 598.11221645 692.45699522 597.29940395 692.17012022 C594.70590157 691.3352216 594.70590157 691.3352216 590.94002895 691.51387022 C590.61002895 690.52387022 590.28002895 689.53387022 589.94002895 688.51387022 C588.2879844 687.81175128 586.62079127 687.14415608 584.94002895 686.51387022 C584.61002895 685.85387022 584.28002895 685.19387022 583.94002895 684.51387022 C580.15657263 682.26975376 580.15657263 682.26975376 575.94002895 681.51387022 C575.67190395 680.87449522 575.40377895 680.23512022 575.12752895 679.57637022 C574.05335143 677.18255335 574.05335143 677.18255335 570.94002895 676.51387022 C569.56668278 674.22495993 568.7875208 672.05634575 567.94002895 669.51387022 C566.95002895 668.77137022 566.95002895 668.77137022 565.94002895 668.01387022 C563.94002895 666.51387022 563.94002895 666.51387022 562.94002895 663.51387022 C562.28002895 663.51387022 561.62002895 663.51387022 560.94002895 663.51387022 C559.95002895 660.21387022 558.96002895 656.91387022 557.94002895 653.51387022 C557.28002895 653.51387022 556.62002895 653.51387022 555.94002895 653.51387022 C554.95002895 649.55387022 553.96002895 645.59387022 552.94002895 641.51387022 C552.28002895 641.51387022 551.62002895 641.51387022 550.94002895 641.51387022 C550.98127895 640.62699522 551.02252895 639.74012022 551.06502895 638.82637022 C550.89657383 633.01466854 549.8241111 627.26040415 548.94002895 621.51387022 C616.26002895 621.51387022 683.58002895 621.51387022 752.94002895 621.51387022 C752.94002895 620.85387022 752.94002895 620.19387022 752.94002895 619.51387022 C753.71346645 619.53707334 754.48690395 619.56027647 755.28377895 619.58418272 C761.57328333 619.69315928 766.92343094 619.36513114 772.94002895 617.51387022 C775.01316314 609.06091236 776.42035551 601.23090775 775.94002895 592.51387022 C776.60002895 592.51387022 777.26002895 592.51387022 777.94002895 592.51387022 C777.94002895 580.96387022 777.94002895 569.41387022 777.94002895 557.51387022 C777.28002895 557.51387022 776.62002895 557.51387022 775.94002895 557.51387022 C776.00190395 556.25574522 776.06377895 554.99762022 776.12752895 553.70137022 C776.16433968 545.22263291 774.37651097 536.84204573 772.94002895 528.51387022 C772.28002895 528.51387022 771.62002895 528.51387022 770.94002895 528.51387022 C770.89104458 527.94539365 770.8420602 527.37691709 770.79159145 526.79121397 C770.30859814 521.80305893 769.46364732 517.28787444 767.94002895 512.51387022 C767.28002895 512.51387022 766.62002895 512.51387022 765.94002895 512.51387022 C766.00190395 511.85387022 766.06377895 511.19387022 766.12752895 510.51387022 C765.87185142 506.42302968 764.48307851 503.30720038 762.94002895 499.51387022 C762.28002895 499.51387022 761.62002895 499.51387022 760.94002895 499.51387022 C760.47596645 497.87418272 760.47596645 497.87418272 760.00252895 496.20137022 C759.35664999 493.95979027 758.67771725 491.72693512 757.94002895 489.51387022 C757.28002895 489.51387022 756.62002895 489.51387022 755.94002895 489.51387022 C755.67190395 488.37949522 755.40377895 487.24512022 755.12752895 486.07637022 C754.73565395 484.90074522 754.34377895 483.72512022 753.94002895 482.51387022 C752.95002895 482.18387022 751.96002895 481.85387022 750.94002895 481.51387022 C750.37752895 479.70137022 750.37752895 479.70137022 749.94002895 477.51387022 C749.30348554 476.16589592 748.64397507 474.82790297 747.94002895 473.51387022 C747.28002895 473.51387022 746.62002895 473.51387022 745.94002895 473.51387022 C745.53784145 472.05980772 745.53784145 472.05980772 745.12752895 470.57637022 C744.73565395 469.56574522 744.34377895 468.55512022 743.94002895 467.51387022 C742.95002895 467.18387022 741.96002895 466.85387022 740.94002895 466.51387022 C739.56668278 464.22495993 738.7875208 462.05634575 737.94002895 459.51387022 C736.21485371 457.76533099 736.21485371 457.76533099 734.12752895 456.07637022 C731.8758046 454.17722904 729.77934171 452.34400084 727.75252895 450.20137022 C725.63987382 448.23441544 723.65987504 447.42048558 720.94002895 446.51387022 C720.94002895 445.85387022 720.94002895 445.19387022 720.94002895 444.51387022 C719.28931499 443.48775073 717.62032889 442.49078879 715.94002895 441.51387022 C714.94002895 440.51387022 713.94002895 439.51387022 712.94002895 438.51387022 C710.26359008 436.92473464 709.12202336 436.51387022 705.94002895 436.51387022 C705.94002895 435.85387022 705.94002895 435.19387022 705.94002895 434.51387022 C701.12792994 432.22342007 701.12792994 432.22342007 695.94002895 431.51387022 C695.94002895 430.85387022 695.94002895 430.19387022 695.94002895 429.51387022 C694.69339565 429.00553431 693.44253509 428.50755877 692.19002895 428.01387022 C691.4939352 427.73543272 690.79784145 427.45699522 690.08065395 427.17012022 C687.67580201 426.31846695 687.67580201 426.31846695 683.94002895 426.51387022 C683.94002895 425.85387022 683.94002895 425.19387022 683.94002895 424.51387022 C678.66089442 422.43000132 673.54464426 421.93477018 667.94002895 421.51387022 C667.94002895 420.85387022 667.94002895 420.19387022 667.94002895 419.51387022 C649.5203331 416.81966617 649.5203331 416.81966617 630.94002895 416.51387022 C630.94002895 415.85387022 630.94002895 415.19387022 630.94002895 414.51387022 C625.00002895 414.51387022 619.06002895 414.51387022 612.94002895 414.51387022 Z " fill="#000000" transform="translate(158.05997104663402,-0.5138702169060707)"/>
<path d="M0 0 C1.32 0 2.64 0 4 0 C4.66 3.3 5.32 6.6 6 10 C6.66 10 7.32 10 8 10 C8.50478485 12.41575607 9.00397642 14.83244361 9.5 17.25 C9.64308594 17.93191406 9.78617187 18.61382812 9.93359375 19.31640625 C10.61251049 22.64633121 11 25.58332551 11 29 C11.66 29 12.32 29 13 29 C13.50690584 31.06081361 14.00524619 33.12373526 14.5 35.1875 C14.7784375 36.33605469 15.056875 37.48460937 15.34375 38.66796875 C15.91495385 41.56818829 16.13283779 44.06096385 16 47 C16.66 47 17.32 47 18 47 C18.50588147 48.91512272 19.00448391 50.83216922 19.5 52.75 C19.7784375 53.81734375 20.056875 54.8846875 20.34375 55.984375 C21 59 21 59 21 63 C21.66 63 22.32 63 23 63 C23.50588147 64.91512272 24.00448391 66.83216922 24.5 68.75 C24.7784375 69.81734375 25.056875 70.8846875 25.34375 71.984375 C26 75 26 75 26 79 C26.66 79 27.32 79 28 79 C28.99 83.95 29.98 88.9 31 94 C31.66 94 32.32 94 33 94 C33.50404808 96.10320063 34.00310508 98.20759791 34.5 100.3125 C34.7784375 101.48425781 35.056875 102.65601563 35.34375 103.86328125 C36 107 36 107 36 110 C36.66 110 37.32 110 38 110 C38.50546036 112.08201528 39.00416835 114.16567067 39.5 116.25 C39.7784375 117.41015625 40.056875 118.5703125 40.34375 119.765625 C41 123 41 123 41 127 C41.66 127 42.32 127 43 127 C43.50636607 128.74816858 44.00484619 130.49862263 44.5 132.25 C44.7784375 133.22453125 45.056875 134.1990625 45.34375 135.203125 C46 138 46 138 46 142 C46.66 142 47.32 142 48 142 C48.50588147 143.91512272 49.00448391 145.83216922 49.5 147.75 C49.7784375 148.81734375 50.056875 149.8846875 50.34375 150.984375 C51 154 51 154 51 158 C51.66 158 52.32 158 53 158 C53.50567729 160.56149628 54.00470132 163.12399465 54.5 165.6875 C54.64308594 166.40873047 54.78617187 167.12996094 54.93359375 167.87304688 C55.65571887 171.63841359 56.1824976 175.14473813 56 179 C56.66 179 57.32 179 58 179 C58.34274406 180.66475686 58.67364302 182.33195323 59 184 C59.185625 184.928125 59.37125 185.85625 59.5625 186.8125 C60 190 60 190 60 198 C22.05 198 -15.9 198 -55 198 C-54.67 194.37 -54.34 190.74 -54 187 C-53.34 187 -52.68 187 -52 187 C-51.86722656 186.20335937 -51.73445313 185.40671875 -51.59765625 184.5859375 C-50.73177083 179.390625 -49.86588542 174.1953125 -49 169 C-48.34 169 -47.68 169 -47 169 C-46.95101563 168.43152344 -46.90203125 167.86304688 -46.8515625 167.27734375 C-46.36856919 162.28918871 -45.52361837 157.77400422 -44 153 C-43.34 153 -42.68 153 -42 153 C-41.95101563 152.38253906 -41.90203125 151.76507812 -41.8515625 151.12890625 C-41.33391578 145.26521841 -40.38417877 139.72127225 -39 134 C-38.34 134 -37.68 134 -37 134 C-36.95101563 133.35933594 -36.90203125 132.71867188 -36.8515625 132.05859375 C-36.3959855 126.78803915 -35.6402621 122.03013712 -34 117 C-33.34 117 -32.68 117 -32 117 C-31.95101563 116.443125 -31.90203125 115.88625 -31.8515625 115.3125 C-31.33444423 110.03432735 -30.39537537 105.11637635 -29 100 C-28.34 100 -27.68 100 -27 100 C-26.86722656 99.18015625 -26.73445313 98.3603125 -26.59765625 97.515625 C-26.42105469 96.43796875 -26.24445313 95.3603125 -26.0625 94.25 C-25.88847656 93.18265625 -25.71445312 92.1153125 -25.53515625 91.015625 C-25.11295829 88.63652407 -24.62797116 86.33084789 -24 84 C-23.34 84 -22.68 84 -22 84 C-21.87625 83.01 -21.7525 82.02 -21.625 81 C-21.04805273 76.91119976 -20.05036346 72.99138113 -19 69 C-18.34 69 -17.68 69 -17 69 C-16.95101562 68.443125 -16.90203125 67.88625 -16.8515625 67.3125 C-16.33444423 62.03432735 -15.39537537 57.11637635 -14 52 C-13.34 52 -12.68 52 -12 52 C-11.86722656 51.20335937 -11.73445313 50.40671875 -11.59765625 49.5859375 C-10.73177083 44.390625 -9.86588542 39.1953125 -9 34 C-8.34 34 -7.68 34 -7 34 C-6.814375 32.081875 -6.814375 32.081875 -6.625 30.125 C-6.06428535 25.01355779 -5.08030341 20.02393526 -4 15 C-3.34 15 -2.68 15 -2 15 C-1.90912109 14.00419922 -1.90912109 14.00419922 -1.81640625 12.98828125 C-0.98418278 4.21792619 -0.98418278 4.21792619 0 0 Z " fill="#000000" transform="translate(358,389)"/>
<path d="M0 0 C0 0.66 0 1.32 0 2 C0.71027344 2.19335938 1.42054688 2.38671875 2.15234375 2.5859375 C3.53099609 2.97652344 3.53099609 2.97652344 4.9375 3.375 C5.85402344 3.63023437 6.77054688 3.88546875 7.71484375 4.1484375 C10 5 10 5 11 7 C11.845625 7.495 12.69125 7.99 13.5625 8.5 C14.366875 8.995 15.17125 9.49 16 10 C16 10.66 16 11.32 16 12 C16.61875 12.0825 17.2375 12.165 17.875 12.25 C20 13 20 13 21.0625 15 C21.371875 15.66 21.68125 16.32 22 17 C23.485 17.495 23.485 17.495 25 18 C25.66666667 20 26.33333333 22 27 24 C28.485 24.495 28.485 24.495 30 25 C31.4477922 27.89558441 32 29.74188938 32 33 C32.66 33 33.32 33 34 33 C35.83970736 37.67884053 36.26956554 41.83509482 36.1953125 46.8046875 C36.1924826 47.5286673 36.18965271 48.25264709 36.18673706 48.99856567 C36.17562087 51.2908849 36.15053312 53.58280063 36.125 55.875 C36.1149591 57.43749432 36.10583519 58.99999482 36.09765625 60.5625 C36.07570973 64.37515338 36.04124013 68.18750848 36 72 C29.59866979 73.15200906 23.31407286 73.13410059 16.82250977 73.11352539 C15.00681236 73.11374443 15.00681236 73.11374443 13.1544342 73.1139679 C9.85327626 73.11339271 6.55218171 73.10839503 3.25103498 73.10139394 C-0.20561201 73.09512103 -3.66225994 73.09455349 -7.11891174 73.09336853 C-13.65647426 73.09026679 -20.19401995 73.08206906 -26.73157507 73.07201904 C-34.17778444 73.06082189 -41.62399464 73.05533839 -49.07021034 73.05032361 C-64.38014995 73.03988544 -79.6900728 73.0223085 -95 73 C-95.73806841 69.58359389 -96.06201983 67.02483028 -95.44140625 63.57421875 C-95.30283203 62.77822266 -95.16425781 61.98222656 -95.02148438 61.16210938 C-94.87001953 60.34548828 -94.71855469 59.52886719 -94.5625 58.6875 C-94.34110352 57.43356445 -94.34110352 57.43356445 -94.11523438 56.15429688 C-93.75158098 54.10141479 -93.3768822 52.05049468 -93 50 C-92.34 50 -91.68 50 -91 50 C-90.80083984 48.96939453 -90.80083984 48.96939453 -90.59765625 47.91796875 C-90.42105469 47.01691406 -90.24445312 46.11585938 -90.0625 45.1875 C-89.88847656 44.29417969 -89.71445312 43.40085937 -89.53515625 42.48046875 C-89 40 -89 40 -88 37 C-87.34 37 -86.68 37 -86 37 C-85.87625 35.906875 -85.7525 34.81375 -85.625 33.6875 C-85 30 -85 30 -83 27 C-82.34 27 -81.68 27 -81 27 C-80.87625 26.4225 -80.7525 25.845 -80.625 25.25 C-79.38770805 20.79574899 -77.50150434 18.26232359 -74 15.25 C-73.29875 14.63640625 -72.5975 14.0228125 -71.875 13.390625 C-70 12 -70 12 -68 12 C-68 11.34 -68 10.68 -68 10 C-63.61538462 7 -63.61538462 7 -61 7 C-61 6.34 -61 5.68 -61 5 C-59.73160474 4.49384702 -58.46016898 3.99530901 -57.1875 3.5 C-56.12595703 3.08234375 -56.12595703 3.08234375 -55.04296875 2.65625 C-53 2 -53 2 -50 2 C-50 1.34 -50 0.68 -50 0 C-32.68397905 -3.86847277 -17.37066319 -3.37762895 0 0 Z " fill="#000000" transform="translate(802,494)"/>
</svg>
