<?xml version="1.0" encoding="UTF-8"?>
<svg version="1.1" xmlns="http://www.w3.org/2000/svg" width="1080" height="1080">
<path d="M0 0 C3.80086159 0.01074863 7.60125184 0.0000043 11.40209961 -0.01269531 C23.75333107 -0.02025451 36.03585112 0.25713997 48.35717773 1.15136719 C49.42887711 1.22885193 50.50057648 1.30633667 51.60475159 1.38616943 C57.80907275 1.88669737 63.89154847 2.70269674 70.01870728 3.79968262 C73.61537806 4.40993275 77.22308809 4.80142199 80.84838867 5.19726562 C101.16809971 7.45188963 121.0313628 12.00368493 140.86108398 16.88574219 C141.99191406 17.16256836 143.12274414 17.43939453 144.2878418 17.72460938 C150.45400307 19.28134863 156.38250092 21.13404599 162.33276367 23.37695312 C165.27995173 24.46074231 168.26001358 25.28546468 171.29858398 26.07324219 C179.33486823 28.30750583 186.98332036 31.38127979 194.72241211 34.47070312 C197.3521878 35.50246284 200.00860092 36.449191 202.67358398 37.38574219 C207.21587028 39.01293316 211.56244884 40.94850603 215.93530273 42.98339844 C218.76051736 44.27188544 221.61146279 45.46203474 224.48608398 46.63574219 C234.98046914 50.9857464 245.07020416 55.70751477 254.81811523 61.56152344 C259.66306924 64.3828822 264.69878512 66.80558812 269.73608398 69.26074219 C271.73701595 70.25887608 273.73726462 71.25838439 275.73608398 72.26074219 C275.73608398 72.92074219 275.73608398 73.58074219 275.73608398 74.26074219 C276.29811523 74.37289062 276.86014648 74.48503906 277.43920898 74.60058594 C280.05121506 75.35131557 282.1307972 76.47241594 284.48608398 77.82324219 C285.68491211 78.50580078 285.68491211 78.50580078 286.90795898 79.20214844 C287.51124023 79.55148438 288.11452148 79.90082031 288.73608398 80.26074219 C288.73608398 80.92074219 288.73608398 81.58074219 288.73608398 82.26074219 C289.60233398 82.44636719 289.60233398 82.44636719 290.48608398 82.63574219 C292.75944165 83.26723043 294.66143688 84.1493241 296.73608398 85.26074219 C296.73608398 85.92074219 296.73608398 86.58074219 296.73608398 87.26074219 C297.31229492 87.36386719 297.88850586 87.46699219 298.48217773 87.57324219 C301.10637896 88.37369178 302.66425336 89.54998778 304.79858398 91.26074219 C307.23212 93.20383428 308.7399423 94.26202829 311.73608398 95.26074219 C311.73608398 95.92074219 311.73608398 96.58074219 311.73608398 97.26074219 C312.80922852 97.64746094 312.80922852 97.64746094 313.90405273 98.04199219 C316.90768509 99.33458984 319.3711377 100.88851308 322.04858398 102.76074219 C322.9315918 103.36917969 323.81459961 103.97761719 324.72436523 104.60449219 C325.38823242 105.15105469 326.05209961 105.69761719 326.73608398 106.26074219 C326.73608398 106.92074219 326.73608398 107.58074219 326.73608398 108.26074219 C327.72608398 108.26074219 328.71608398 108.26074219 329.73608398 108.26074219 C329.73608398 108.92074219 329.73608398 109.58074219 329.73608398 110.26074219 C330.54045898 110.63199219 330.54045898 110.63199219 331.36108398 111.01074219 C334.31848218 112.56726755 337.03332449 114.29509892 339.73608398 116.26074219 C339.73608398 116.92074219 339.73608398 117.58074219 339.73608398 118.26074219 C340.39608398 118.44636719 341.05608398 118.63199219 341.73608398 118.82324219 C345.37015303 120.56456694 347.91676755 122.8935878 350.86889648 125.60449219 C352.83951589 127.42876124 352.83951589 127.42876124 355.73608398 129.26074219 C355.73608398 129.92074219 355.73608398 130.58074219 355.73608398 131.26074219 C356.39608398 131.26074219 357.05608398 131.26074219 357.73608398 131.26074219 C357.73608398 131.92074219 357.73608398 132.58074219 357.73608398 133.26074219 C358.5365918 133.58365234 358.5365918 133.58365234 359.35327148 133.91308594 C362.61266006 135.75651062 365.16420169 138.26087592 367.86108398 140.82324219 C371.50011805 144.44708126 371.50011805 144.44708126 375.73608398 147.26074219 C375.73608398 147.92074219 375.73608398 148.58074219 375.73608398 149.26074219 C376.69514648 149.66292969 376.69514648 149.66292969 377.67358398 150.07324219 C379.73608398 151.26074219 379.73608398 151.26074219 380.73608398 154.26074219 C382.06016067 154.94560944 383.39517639 155.60944421 384.73608398 156.26074219 C386.98608398 158.26074219 386.98608398 158.26074219 388.73608398 160.26074219 C388.73608398 160.92074219 388.73608398 161.58074219 388.73608398 162.26074219 C389.69514648 162.66292969 389.69514648 162.66292969 390.67358398 163.07324219 C392.73608398 164.26074219 392.73608398 164.26074219 393.73608398 167.26074219 C394.72608398 167.59074219 395.71608398 167.92074219 396.73608398 168.26074219 C398.27905273 169.79199219 398.27905273 169.79199219 399.92358398 171.76074219 C403.2691226 175.72105926 406.72612735 179.5591955 410.23217773 183.37792969 C411.73608398 185.26074219 411.73608398 185.26074219 411.73608398 187.26074219 C412.72608398 187.59074219 413.71608398 187.92074219 414.73608398 188.26074219 C416.77905273 190.47558594 416.77905273 190.47558594 418.92358398 193.19824219 C419.99672852 194.54208984 419.99672852 194.54208984 421.09155273 195.91308594 C422.73608398 198.26074219 422.73608398 198.26074219 422.73608398 200.26074219 C423.39608398 200.26074219 424.05608398 200.26074219 424.73608398 200.26074219 C426.40795898 202.21777344 426.40795898 202.21777344 428.48608398 205.07324219 C429.05794434 205.85393066 429.05794434 205.85393066 429.64135742 206.65039062 C430.51117955 207.8379932 431.37851271 209.02742112 432.24389648 210.21826172 C433.90467315 212.49150413 435.58474525 214.74969369 437.26733398 217.00683594 C438.50710288 218.67466677 439.74668637 220.34263544 440.98608398 222.01074219 C441.57615234 222.80198486 442.1662207 223.59322754 442.77416992 224.40844727 C452.73608398 237.88293561 452.73608398 237.88293561 452.73608398 241.26074219 C453.39608398 241.26074219 454.05608398 241.26074219 454.73608398 241.26074219 C459.05692504 246.53164769 462.16876477 252.77898984 465.36499023 258.76464844 C466.98795001 261.71926752 468.85285887 264.46627912 470.73608398 267.26074219 C471.98517306 269.45197695 473.19390655 271.66283454 474.40014648 273.87792969 C475.69227568 276.18260457 477.07688824 278.40127159 478.48608398 280.63574219 C483.23707037 288.48891505 486.88433233 296.94324164 490.73608398 305.26074219 C491.65723561 307.23371507 492.58053843 309.20566825 493.50415039 311.17749023 C494.35744413 313.00295539 495.20507738 314.83097855 496.05249023 316.65917969 C497.18942356 319.09132012 498.33872676 321.51131649 499.51342773 323.92480469 C503.37746026 331.92171784 506.53529087 339.99208267 509.40014648 348.39746094 C510.43768224 351.43763094 511.5679165 354.41737222 512.79858398 357.38574219 C519.93700662 374.87782741 524.66064278 393.39867138 529.11010742 411.72021484 C529.55084538 413.50895086 530.00308359 415.29487286 530.46362305 417.07861328 C532.35228111 424.42701274 533.88040153 431.79662885 535.23608398 439.26074219 C535.45111572 440.43846191 535.66614746 441.61618164 535.88769531 442.82958984 C540.28507702 467.18304715 543.06215313 491.14654388 543.00170898 515.91699219 C543.00306277 517.9217534 543.00500915 519.9265143 543.00750732 521.93127441 C543.01042515 526.09597963 543.00627037 530.260598 542.99682617 534.42529297 C542.9854338 539.699251 542.99201146 544.97300527 543.0039711 550.24695587 C543.01128112 554.37568633 543.00886041 558.50437038 543.00371552 562.63310242 C543.00240412 564.57508876 543.00393585 566.51707966 543.00867462 568.45906067 C543.04576191 587.91595955 541.24777675 606.91248122 537.92358398 626.07324219 C537.79125366 626.84643799 537.65892334 627.61963379 537.52258301 628.41625977 C536.61727516 633.70204582 535.68496544 638.9826191 534.73608398 644.26074219 C534.43661865 645.93789307 534.43661865 645.93789307 534.13110352 647.64892578 C529.3340123 673.9280847 521.7720603 700.13482652 512.73608398 725.26074219 C512.33413818 726.38826904 512.33413818 726.38826904 511.92407227 727.53857422 C509.49209222 734.32375451 507.05260317 741.04407854 503.66186523 747.42089844 C502.56876878 749.59325469 501.68524068 751.80891175 500.79858398 754.07324219 C498.64274991 759.56687343 496.21922408 764.9083437 493.73608398 770.26074219 C493.17717914 771.49497636 492.618605 772.72936032 492.06030273 773.96386719 C482.57069405 794.74666515 471.64047683 815.9733975 458.01342773 834.37792969 C456.56010521 836.33714763 456.56010521 836.33714763 455.73608398 839.26074219 C455.07608398 839.26074219 454.41608398 839.26074219 453.73608398 839.26074219 C453.52209961 839.91816406 453.30811523 840.57558594 453.08764648 841.25292969 C451.25117861 845.33986686 448.72833621 848.76337173 446.11108398 852.38574219 C445.57563965 853.13331787 445.04019531 853.88089355 444.48852539 854.65112305 C443.41173563 856.15291039 442.33282742 857.65318127 441.25170898 859.15185547 C439.90022617 861.03234975 438.5643981 862.92244658 437.23608398 864.81933594 C436.53483398 865.810625 435.83358398 866.80191406 435.11108398 867.82324219 C434.50006836 868.69078125 433.88905273 869.55832031 433.25952148 870.45214844 C432.75678711 871.04898438 432.25405273 871.64582031 431.73608398 872.26074219 C431.07608398 872.26074219 430.41608398 872.26074219 429.73608398 872.26074219 C429.73608398 873.25074219 429.73608398 874.24074219 429.73608398 875.26074219 C429.07608398 875.26074219 428.41608398 875.26074219 427.73608398 875.26074219 C427.48858398 875.79699219 427.24108398 876.33324219 426.98608398 876.88574219 C425.42955862 879.84314038 423.70172725 882.55798269 421.73608398 885.26074219 C421.07608398 885.26074219 420.41608398 885.26074219 419.73608398 885.26074219 C419.49889648 885.80214844 419.26170898 886.34355469 419.01733398 886.90136719 C417.39260642 889.89324356 415.38589629 892.37233618 413.23608398 895.01074219 C412.04499023 896.48800781 412.04499023 896.48800781 410.82983398 897.99511719 C409.79342773 899.11660156 409.79342773 899.11660156 408.73608398 900.26074219 C408.07608398 900.26074219 407.41608398 900.26074219 406.73608398 900.26074219 C406.46795898 900.84339844 406.19983398 901.42605469 405.92358398 902.02636719 C404.72127408 904.28860819 403.39782486 906.06650536 401.73608398 908.01074219 C401.22045898 908.62433594 400.70483398 909.23792969 400.17358398 909.87011719 C398.73608398 911.26074219 398.73608398 911.26074219 396.73608398 911.26074219 C396.73608398 911.92074219 396.73608398 912.58074219 396.73608398 913.26074219 C395.36108398 914.88574219 395.36108398 914.88574219 393.73608398 916.26074219 C393.07608398 916.26074219 392.41608398 916.26074219 391.73608398 916.26074219 C391.73608398 916.92074219 391.73608398 917.58074219 391.73608398 918.26074219 C389.30369053 920.90162651 386.79622275 923.21290453 383.98608398 925.44824219 C381.66121011 927.06383296 381.66121011 927.06383296 380.73608398 929.26074219 C380.07608398 929.26074219 379.41608398 929.26074219 378.73608398 929.26074219 C378.73608398 929.92074219 378.73608398 930.58074219 378.73608398 931.26074219 C377.36108398 932.88574219 377.36108398 932.88574219 375.73608398 934.26074219 C375.07608398 934.26074219 374.41608398 934.26074219 373.73608398 934.26074219 C373.73608398 934.92074219 373.73608398 935.58074219 373.73608398 936.26074219 C372.09155273 937.95214844 372.09155273 937.95214844 369.92358398 939.82324219 C368.86204102 940.75330078 368.86204102 940.75330078 367.77905273 941.70214844 C365.73608398 943.26074219 365.73608398 943.26074219 362.73608398 944.26074219 C362.73608398 944.92074219 362.73608398 945.58074219 362.73608398 946.26074219 C361.04334114 947.82507005 359.28038546 949.31402791 357.48608398 950.76074219 C356.51155273 951.55480469 355.53702148 952.34886719 354.53295898 953.16699219 C352.28713637 954.84822253 350.28950369 956.14210117 347.73608398 957.26074219 C347.73608398 957.92074219 347.73608398 958.58074219 347.73608398 959.26074219 C346.05639648 960.76855469 346.05639648 960.76855469 343.86108398 962.38574219 C343.14178711 962.92457031 342.42249023 963.46339844 341.68139648 964.01855469 C339.73608398 965.26074219 339.73608398 965.26074219 337.73608398 965.26074219 C337.73608398 965.92074219 337.73608398 966.58074219 337.73608398 967.26074219 C336.74608398 967.26074219 335.75608398 967.26074219 334.73608398 967.26074219 C334.40608398 968.25074219 334.07608398 969.24074219 333.73608398 970.26074219 C332.26831055 971.56005859 332.26831055 971.56005859 330.37670898 972.86230469 C329.32978882 973.59175293 329.32978882 973.59175293 328.26171875 974.3359375 C327.51075928 974.84737305 326.7597998 975.35880859 325.98608398 975.88574219 C325.22416748 976.41264648 324.46225098 976.93955078 323.67724609 977.48242188 C322.11865971 978.55960105 320.55802203 979.63381812 318.99536133 980.70507812 C316.91445003 982.1379252 314.84783416 983.58847681 312.78686523 985.04980469 C311.62413734 985.87016328 310.46137891 986.6904786 309.29858398 987.51074219 C308.26862305 988.23777344 307.23866211 988.96480469 306.17749023 989.71386719 C303.73608398 991.26074219 303.73608398 991.26074219 301.73608398 991.26074219 C301.73608398 991.92074219 301.73608398 992.58074219 301.73608398 993.26074219 C300.75124023 993.81632813 299.76639648 994.37191406 298.75170898 994.94433594 C294.60614092 997.31338047 290.54861904 999.81542105 286.48608398 1002.32324219 C272.19996928 1011.07380213 257.97129293 1019.3997154 242.71313477 1026.34326172 C239.5595679 1027.80672236 236.46139639 1029.37587377 233.36108398 1030.94824219 C224.94055894 1035.18256335 216.55971545 1039.11606076 207.63452148 1042.17089844 C205.18549638 1043.09175828 202.83976726 1044.09954598 200.45874023 1045.17871094 C195.97687444 1047.19081618 191.43978914 1048.90494665 186.79858398 1050.51074219 C185.51612793 1050.9546228 185.51612793 1050.9546228 184.20776367 1051.4074707 C153.63509696 1061.86869669 122.6152951 1069.98052003 90.73608398 1075.26074219 C89.82439453 1075.41381836 88.91270508 1075.56689453 87.97338867 1075.72460938 C68.04096462 1079.03058355 48.27757175 1080.57565314 28.07983398 1080.52636719 C26.07507277 1080.52772097 24.07031188 1080.52966736 22.06555176 1080.53216553 C17.90084654 1080.53508335 13.73622817 1080.53092857 9.5715332 1080.52148438 C4.29757518 1080.510092 -0.9761791 1080.51666967 -6.2501297 1080.5286293 C-10.37886016 1080.53593932 -14.50754421 1080.53351861 -18.63627625 1080.52837372 C-20.57826259 1080.52706233 -22.52025349 1080.52859406 -24.4622345 1080.53333282 C-43.93931669 1080.57045859 -62.95652847 1078.76431839 -82.13891602 1075.44824219 C-83.29713867 1075.25124222 -83.29713867 1075.25124222 -84.47875977 1075.05026245 C-97.49711222 1072.83394272 -110.4188701 1070.33828954 -123.26391602 1067.26074219 C-124.41956055 1066.98584961 -125.57520508 1066.71095703 -126.76586914 1066.42773438 C-130.51812506 1065.52943135 -134.26666106 1064.61717219 -138.01391602 1063.69824219 C-139.74641602 1063.2768396 -139.74641602 1063.2768396 -141.51391602 1062.84692383 C-147.80175653 1061.27450673 -153.85481945 1059.42820055 -159.91821289 1057.13793945 C-162.62497564 1056.12572062 -165.35967265 1055.30020842 -168.13891602 1054.51074219 C-177.70097657 1051.6138339 -186.96465161 1047.89901602 -196.26391602 1044.26074219 C-197.19445801 1043.89835449 -198.125 1043.5359668 -199.08374023 1043.16259766 C-201.81299138 1042.09744281 -204.53906218 1041.02459092 -207.26391602 1039.94824219 C-208.50927124 1039.46049316 -208.50927124 1039.46049316 -209.77978516 1038.96289062 C-213.8521872 1037.33949285 -217.53146865 1035.58359507 -221.26391602 1033.26074219 C-222.66734701 1032.68565204 -224.08512137 1032.14455755 -225.51391602 1031.63574219 C-231.92088506 1029.14732117 -237.85827862 1025.83872396 -243.90063477 1022.58886719 C-249.95165829 1019.33901888 -256.10352094 1016.29700664 -262.26391602 1013.26074219 C-262.26391602 1012.60074219 -262.26391602 1011.94074219 -262.26391602 1011.26074219 C-263.91391602 1010.93074219 -265.56391602 1010.60074219 -267.26391602 1010.26074219 C-267.26391602 1009.60074219 -267.26391602 1008.94074219 -267.26391602 1008.26074219 C-267.81821289 1008.14988281 -268.37250977 1008.03902344 -268.94360352 1007.92480469 C-276.67484073 1005.71216104 -283.65743686 1000.46877636 -290.07250977 995.77636719 C-292.08005199 994.38790661 -294.05408768 993.2876328 -296.26391602 992.26074219 C-296.26391602 991.60074219 -296.26391602 990.94074219 -296.26391602 990.26074219 C-297.52075195 989.93203125 -297.52075195 989.93203125 -298.80297852 989.59667969 C-303.03260456 987.96402494 -306.09166933 985.66039529 -309.63891602 982.88574219 C-311.04630836 981.80740867 -312.45386556 980.72929029 -313.86157227 979.65136719 C-314.58231934 979.09513672 -315.30306641 978.53890625 -316.0456543 977.96582031 C-319.69896945 975.15768108 -323.388452 972.39811284 -327.07641602 969.63574219 C-327.75172363 969.12736816 -328.42703125 968.61899414 -329.12280273 968.09521484 C-329.75331543 967.62132324 -330.38382813 967.14743164 -331.03344727 966.65917969 C-331.58621338 966.2432959 -332.13897949 965.82741211 -332.70849609 965.39892578 C-334.19655505 964.31003379 -335.7296899 963.2835596 -337.26391602 962.26074219 C-337.26391602 961.60074219 -337.26391602 960.94074219 -337.26391602 960.26074219 C-337.82594727 960.00292969 -338.38797852 959.74511719 -338.96704102 959.47949219 C-341.5309618 958.11904442 -343.71617967 956.53285257 -346.01391602 954.76074219 C-346.81313477 954.15230469 -347.61235352 953.54386719 -348.43579102 952.91699219 C-349.03907227 952.37042969 -349.64235352 951.82386719 -350.26391602 951.26074219 C-350.26391602 950.60074219 -350.26391602 949.94074219 -350.26391602 949.26074219 C-350.80016602 949.04289063 -351.33641602 948.82503906 -351.88891602 948.60058594 C-355.09810281 946.7901401 -357.60924534 944.34320804 -360.26391602 941.82324219 C-364.29676465 937.99949754 -364.29676465 937.99949754 -368.63891602 934.53808594 C-369.44329102 933.90580078 -369.44329102 933.90580078 -370.26391602 933.26074219 C-370.26391602 932.60074219 -370.26391602 931.94074219 -370.26391602 931.26074219 C-370.90329102 930.99261719 -371.54266602 930.72449219 -372.20141602 930.44824219 C-374.26391602 929.26074219 -374.26391602 929.26074219 -375.26391602 926.26074219 C-376.5879927 925.57587494 -377.92300842 924.91204016 -379.26391602 924.26074219 C-381.51391602 922.26074219 -381.51391602 922.26074219 -383.26391602 920.26074219 C-383.26391602 919.60074219 -383.26391602 918.94074219 -383.26391602 918.26074219 C-383.90329102 917.99261719 -384.54266602 917.72449219 -385.20141602 917.44824219 C-387.26391602 916.26074219 -387.26391602 916.26074219 -388.26391602 913.26074219 C-389.25391602 912.93074219 -390.24391602 912.60074219 -391.26391602 912.26074219 C-392.87719727 910.65917969 -392.87719727 910.65917969 -394.57641602 908.63574219 C-395.18227539 907.91902344 -395.78813477 907.20230469 -396.41235352 906.46386719 C-397.02336914 905.73683594 -397.63438477 905.00980469 -398.26391602 904.26074219 C-398.85430664 903.59558594 -399.44469727 902.93042969 -400.05297852 902.24511719 C-400.59696289 901.63152344 -401.14094727 901.01792969 -401.70141602 900.38574219 C-402.19512695 899.83144531 -402.68883789 899.27714844 -403.19750977 898.70605469 C-404.26391602 897.26074219 -404.26391602 897.26074219 -404.26391602 895.26074219 C-404.92391602 895.26074219 -405.58391602 895.26074219 -406.26391602 895.26074219 C-406.26391602 894.60074219 -406.26391602 893.94074219 -406.26391602 893.26074219 C-407.25391602 892.93074219 -408.24391602 892.60074219 -409.26391602 892.26074219 C-410.45141602 889.69824219 -410.45141602 889.69824219 -411.26391602 887.26074219 C-411.92391602 887.26074219 -412.58391602 887.26074219 -413.26391602 887.26074219 C-417.26391602 882.79015395 -417.26391602 882.79015395 -417.26391602 880.26074219 C-417.92391602 880.26074219 -418.58391602 880.26074219 -419.26391602 880.26074219 C-419.26391602 879.27074219 -419.26391602 878.28074219 -419.26391602 877.26074219 C-420.25391602 876.93074219 -421.24391602 876.60074219 -422.26391602 876.26074219 C-423.65063477 874.70214844 -423.65063477 874.70214844 -424.95141602 872.82324219 C-425.3884082 872.20578125 -425.82540039 871.58832031 -426.27563477 870.95214844 C-427.26391602 869.26074219 -427.26391602 869.26074219 -427.26391602 867.26074219 C-427.92391602 867.26074219 -428.58391602 867.26074219 -429.26391602 867.26074219 C-429.26391602 866.27074219 -429.26391602 865.28074219 -429.26391602 864.26074219 C-429.92391602 864.26074219 -430.58391602 864.26074219 -431.26391602 864.26074219 C-431.92391602 862.61074219 -432.58391602 860.96074219 -433.26391602 859.26074219 C-433.92391602 859.26074219 -434.58391602 859.26074219 -435.26391602 859.26074219 C-436.55297852 857.58105469 -436.55297852 857.58105469 -437.88891602 855.38574219 C-438.33493164 854.66644531 -438.78094727 853.94714844 -439.24047852 853.20605469 C-440.26391602 851.26074219 -440.26391602 851.26074219 -440.26391602 849.26074219 C-440.92391602 849.26074219 -441.58391602 849.26074219 -442.26391602 849.26074219 C-442.26391602 848.27074219 -442.26391602 847.28074219 -442.26391602 846.26074219 C-442.92391602 846.26074219 -443.58391602 846.26074219 -444.26391602 846.26074219 C-445.67407227 844.34667969 -445.67407227 844.34667969 -447.32641602 841.63574219 C-447.94129883 840.64058594 -448.55618164 839.64542969 -449.18969727 838.62011719 C-449.87418945 837.51152344 -450.55868164 836.40292969 -451.26391602 835.26074219 C-452.83678375 832.79563189 -454.42522014 830.34067344 -456.01391602 827.88574219 C-457.43881034 825.68238538 -458.85407823 823.47385964 -460.26391602 821.26074219 C-460.84657227 820.36097656 -461.42922852 819.46121094 -462.02954102 818.53417969 C-463.26391602 816.26074219 -463.26391602 816.26074219 -463.26391602 813.26074219 C-463.92391602 813.26074219 -464.58391602 813.26074219 -465.26391602 813.26074219 C-465.71831055 812.33455078 -465.71831055 812.33455078 -466.18188477 811.38964844 C-468.2354607 807.2382657 -470.30986027 803.1129538 -472.57641602 799.07324219 C-478.23360415 788.99024125 -483.62468049 778.85702506 -488.26391602 768.26074219 C-488.90993913 766.81753544 -489.5571771 765.37487217 -490.20532227 763.93261719 C-496.7305858 749.38908556 -496.7305858 749.38908556 -499.22485352 742.93652344 C-500.03866228 740.8408129 -500.88368866 738.75721966 -501.74047852 736.67871094 C-517.38120732 698.30489709 -527.12451452 657.26056417 -532.95141602 616.32324219 C-533.05387634 615.62247559 -533.15633667 614.92170898 -533.26190186 614.19970703 C-536.61242927 591.10792347 -537.60099045 567.95864935 -537.5246582 544.64501953 C-537.51392188 540.76286211 -537.52464281 536.88116719 -537.53735352 532.99902344 C-537.55132016 510.32561085 -536.26619806 487.83220315 -533.01391602 465.38574219 C-532.90853516 464.64090576 -532.8031543 463.89606934 -532.69458008 463.12866211 C-530.54823917 448.02944043 -527.6809217 433.12693576 -524.26391602 418.26074219 C-524.0526709 417.3395459 -523.84142578 416.41834961 -523.6237793 415.46923828 C-521.29351156 405.45903901 -518.55100222 395.57189504 -515.70141602 385.69824219 C-515.42048096 384.72266357 -515.1395459 383.74708496 -514.85009766 382.74194336 C-512.91222792 376.1444008 -510.68143753 369.69688763 -508.26391602 363.26074219 C-508.00570068 362.56601807 -507.74748535 361.87129395 -507.48144531 361.15551758 C-506.53717614 358.61895136 -505.58233689 356.08638442 -504.62768555 353.55371094 C-503.29957172 350.02748206 -501.9812403 346.49833761 -500.68579102 342.95996094 C-496.19746471 330.74658871 -496.19746471 330.74658871 -493.19750977 325.12011719 C-491.6749303 322.0876995 -490.50114793 318.92044807 -489.29125977 315.75292969 C-488.09018423 312.83929399 -486.69546118 310.06850711 -485.26391602 307.26074219 C-484.65216915 306.0399235 -484.04154686 304.81854082 -483.43188477 303.59667969 C-482.41605952 301.56426253 -481.3994995 299.53222882 -480.38085938 297.5012207 C-478.81056098 294.36809306 -477.25025315 291.23248017 -475.72485352 288.07714844 C-472.09228832 280.59893462 -467.91642301 273.52242143 -463.58374023 266.43847656 C-462.13700429 264.05133549 -460.71642118 261.64981737 -459.29907227 259.24511719 C-454.46485912 251.06314068 -449.67116616 243.00526011 -443.88500977 235.45214844 C-442.17126451 233.2255914 -442.17126451 233.2255914 -440.67407227 230.47558594 C-440.2087207 229.7446875 -439.74336914 229.01378906 -439.26391602 228.26074219 C-438.60391602 228.26074219 -437.94391602 228.26074219 -437.26391602 228.26074219 C-436.79985352 227.08511719 -436.79985352 227.08511719 -436.32641602 225.88574219 C-435.26391602 223.26074219 -435.26391602 223.26074219 -434.26391602 221.26074219 C-433.60391602 221.26074219 -432.94391602 221.26074219 -432.26391602 221.26074219 C-432.26391602 220.27074219 -432.26391602 219.28074219 -432.26391602 218.26074219 C-431.60391602 218.26074219 -430.94391602 218.26074219 -430.26391602 218.26074219 C-430.05766602 217.60074219 -429.85141602 216.94074219 -429.63891602 216.26074219 C-427.77267349 212.18894032 -425.28830075 208.57277221 -422.26391602 205.26074219 C-421.60391602 205.26074219 -420.94391602 205.26074219 -420.26391602 205.26074219 C-419.97516602 204.66261719 -419.68641602 204.06449219 -419.38891602 203.44824219 C-418.26391602 201.26074219 -418.26391602 201.26074219 -416.26391602 198.26074219 C-415.60391602 198.26074219 -414.94391602 198.26074219 -414.26391602 198.26074219 C-414.26391602 197.27074219 -414.26391602 196.28074219 -414.26391602 195.26074219 C-413.16595387 194.12846872 -412.0565156 193.00569854 -410.90063477 191.93261719 C-407.98863007 188.95806346 -405.55663876 185.57721462 -403.03344727 182.27246094 C-402.1575293 181.27666016 -402.1575293 181.27666016 -401.26391602 180.26074219 C-400.60391602 180.26074219 -399.94391602 180.26074219 -399.26391602 180.26074219 C-398.93391602 179.27074219 -398.60391602 178.28074219 -398.26391602 177.26074219 C-397.60391602 177.26074219 -396.94391602 177.26074219 -396.26391602 177.26074219 C-396.00094727 176.6690625 -395.73797852 176.07738281 -395.46704102 175.46777344 C-394.21014206 173.1620984 -392.91622978 171.74344369 -391.01391602 169.94824219 C-388.61248843 167.62620064 -386.38646006 165.27724732 -384.26391602 162.69824219 C-381.72400353 159.67066651 -378.95334146 157.17399108 -375.91625977 154.65527344 C-372.89876235 152.10859122 -370.20318615 149.23889278 -367.47094727 146.39355469 C-366.84575195 145.75160156 -366.22055664 145.10964844 -365.57641602 144.44824219 C-364.99504883 143.84367188 -364.41368164 143.23910156 -363.81469727 142.61621094 C-362.26391602 141.26074219 -362.26391602 141.26074219 -360.26391602 141.26074219 C-359.93391602 140.27074219 -359.60391602 139.28074219 -359.26391602 138.26074219 C-358.60391602 138.26074219 -357.94391602 138.26074219 -357.26391602 138.26074219 C-357.26391602 137.60074219 -357.26391602 136.94074219 -357.26391602 136.26074219 C-355.56488578 134.74333243 -353.80318879 133.29561419 -352.01391602 131.88574219 C-349.21495799 129.67175158 -346.54944794 127.56168051 -344.09204102 124.97167969 C-342.26391602 123.26074219 -342.26391602 123.26074219 -339.26391602 123.26074219 C-338.93391602 122.27074219 -338.60391602 121.28074219 -338.26391602 120.26074219 C-334.81947157 117.26074219 -334.81947157 117.26074219 -332.26391602 117.26074219 C-332.26391602 116.60074219 -332.26391602 115.94074219 -332.26391602 115.26074219 C-330.52843432 113.81547483 -328.72415638 112.45201998 -326.88891602 111.13574219 C-325.89118164 110.41128906 -324.89344727 109.68683594 -323.86547852 108.94042969 C-321.26391602 107.26074219 -321.26391602 107.26074219 -319.26391602 107.26074219 C-319.26391602 106.60074219 -319.26391602 105.94074219 -319.26391602 105.26074219 C-318.27391602 105.26074219 -317.28391602 105.26074219 -316.26391602 105.26074219 C-316.26391602 104.60074219 -316.26391602 103.94074219 -316.26391602 103.26074219 C-311.87930063 100.26074219 -311.87930063 100.26074219 -309.26391602 100.26074219 C-309.26391602 99.60074219 -309.26391602 98.94074219 -309.26391602 98.26074219 C-307.20922852 96.78027344 -307.20922852 96.78027344 -304.38891602 95.07324219 C-300.59910522 92.7324767 -296.89224319 90.34490447 -293.26391602 87.76074219 C-285.55478421 82.3168529 -277.65106806 77.36311317 -269.32641602 72.91699219 C-266.39417277 71.33118717 -263.49834631 69.69327166 -260.60351562 68.04077148 C-252.56983885 63.46323026 -244.4072401 59.23510921 -236.10522461 55.16748047 C-233.33486027 53.80323582 -230.58211859 52.40431041 -227.82641602 51.01074219 C-223.0280258 48.61476748 -218.18779777 46.38446115 -213.26391602 44.26074219 C-212.25071289 43.80957031 -211.23750977 43.35839844 -210.19360352 42.89355469 C-202.98940128 39.72633138 -195.74535679 36.94136574 -188.30981445 34.375 C-184.49790942 33.05797028 -180.73987656 31.68419332 -177.01391602 30.13574219 C-171.22845166 27.76384575 -165.24534743 26.06476749 -159.26391602 24.26074219 C-158.07926758 23.90238281 -156.89461914 23.54402344 -155.67407227 23.17480469 C-139.00552477 18.16532678 -122.37587584 13.52683241 -105.26391602 10.26074219 C-104.1648291 10.0496582 -103.06574219 9.83857422 -101.93334961 9.62109375 C-68.05373002 3.18628105 -34.50827763 -0.11549401 0 0 Z M-34.48803711 237.36328125 C-36.71049008 238.48642355 -38.95691948 239.55746617 -41.20141602 240.63574219 C-62.19665017 251.15106182 -85.19585968 265.041098 -102.26391602 281.26074219 C-102.26391602 281.92074219 -102.26391602 282.58074219 -102.26391602 283.26074219 C-103.25391602 283.26074219 -104.24391602 283.26074219 -105.26391602 283.26074219 C-106.97750245 284.87912938 -108.63468861 286.557459 -110.26391602 288.26074219 C-112.12514957 289.84337113 -114.00824738 291.39315495 -115.90844727 292.92871094 C-116.35575195 293.36828125 -116.80305664 293.80785156 -117.26391602 294.26074219 C-117.26391602 294.92074219 -117.26391602 295.58074219 -117.26391602 296.26074219 C-118.25391602 296.59074219 -119.24391602 296.92074219 -120.26391602 297.26074219 C-120.26391602 297.92074219 -120.26391602 298.58074219 -120.26391602 299.26074219 C-121.22297852 299.66292969 -121.22297852 299.66292969 -122.20141602 300.07324219 C-124.59523288 301.14741971 -124.59523288 301.14741971 -125.26391602 304.26074219 C-126.59724935 304.92740885 -127.93058268 305.59407552 -129.26391602 306.26074219 C-129.75891602 307.74574219 -129.75891602 307.74574219 -130.26391602 309.26074219 C-131.74891602 309.75574219 -131.74891602 309.75574219 -133.26391602 310.26074219 C-133.26391602 310.92074219 -133.26391602 311.58074219 -133.26391602 312.26074219 C-133.92391602 312.26074219 -134.58391602 312.26074219 -135.26391602 312.26074219 C-135.26391602 312.92074219 -135.26391602 313.58074219 -135.26391602 314.26074219 C-136.74891602 314.75574219 -136.74891602 314.75574219 -138.26391602 315.26074219 C-138.26391602 315.92074219 -138.26391602 316.58074219 -138.26391602 317.26074219 C-139.74891602 317.75574219 -139.74891602 317.75574219 -141.26391602 318.26074219 C-142.87204267 319.99300493 -144.40588918 321.79524308 -145.88891602 323.63574219 C-146.68555664 324.61285156 -147.48219727 325.58996094 -148.30297852 326.59667969 C-150.40200297 329.1621681 -150.40200297 329.1621681 -151.26391602 332.26074219 C-151.92391602 332.26074219 -152.58391602 332.26074219 -153.26391602 332.26074219 C-154.72661704 333.80652825 -154.72661704 333.80652825 -156.19750977 335.83886719 C-156.76405273 336.5878125 -157.3305957 337.33675781 -157.91430664 338.10839844 C-158.50405273 338.90117187 -159.09379883 339.69394531 -159.70141602 340.51074219 C-160.28729492 341.28804687 -160.87317383 342.06535156 -161.47680664 342.86621094 C-163.07850248 344.99332119 -164.67225892 347.12611609 -166.26391602 349.26074219 C-166.82216064 349.96424805 -167.38040527 350.66775391 -167.95556641 351.39257812 C-169.45513239 353.15365108 -169.45513239 353.15365108 -169.26391602 355.26074219 C-169.92391602 355.26074219 -170.58391602 355.26074219 -171.26391602 355.26074219 C-171.82079102 356.27136719 -172.37766602 357.28199219 -172.95141602 358.32324219 C-174.49114814 361.03846873 -176.16173197 363.56144844 -178.01391602 366.07324219 C-180.45614375 368.88279443 -180.45614375 368.88279443 -180.26391602 371.26074219 C-180.92391602 371.26074219 -181.58391602 371.26074219 -182.26391602 371.26074219 C-184.09433257 373.86183164 -184.09433257 373.86183164 -185.88891602 377.07324219 C-186.52055664 378.1521875 -187.15219727 379.23113281 -187.80297852 380.34277344 C-189.48776219 383.16395899 -189.48776219 383.16395899 -189.26391602 386.26074219 C-189.92391602 386.26074219 -190.58391602 386.26074219 -191.26391602 386.26074219 C-191.59391602 387.91074219 -191.92391602 389.56074219 -192.26391602 391.26074219 C-192.92391602 391.26074219 -193.58391602 391.26074219 -194.26391602 391.26074219 C-194.59391602 392.91074219 -194.92391602 394.56074219 -195.26391602 396.26074219 C-195.92391602 396.26074219 -196.58391602 396.26074219 -197.26391602 396.26074219 C-197.57095459 396.9051123 -197.87799316 397.54948242 -198.19433594 398.21337891 C-199.61239043 401.18796457 -201.03189552 404.16185586 -202.45141602 407.13574219 C-202.93416992 408.14894531 -203.41692383 409.16214844 -203.91430664 410.20605469 C-206.23152175 415.05820982 -208.57092039 419.8942525 -210.99438477 424.69433594 C-212.60611523 427.90047678 -214.10688665 431.09302119 -215.38891602 434.44824219 C-216.43174624 437.1568322 -217.51008723 439.82332182 -218.67407227 442.48339844 C-220.51406294 446.75431312 -222.05143366 451.11920633 -223.57641602 455.51074219 C-223.8798291 456.38408203 -224.18324219 457.25742187 -224.49584961 458.15722656 C-233.14956678 483.23810951 -239.90056611 508.60885804 -243.82641602 534.88574219 C-243.98791641 535.96125839 -243.98791641 535.96125839 -244.15267944 537.0585022 C-245.8901342 548.82716564 -246.95061125 560.57062099 -247.57641602 572.44824219 C-247.61566193 573.18625061 -247.65490784 573.92425903 -247.69534302 574.68463135 C-248.51716052 590.72656275 -248.30501517 606.66668985 -247.45141602 622.69824219 C-247.40790009 623.52679718 -247.36438416 624.35535217 -247.31954956 625.20901489 C-246.3774442 642.79815363 -244.80073258 660.23903686 -241.07641602 677.48339844 C-240.45256856 680.38368927 -239.87369104 683.27942903 -239.32641602 686.19433594 C-237.76337786 694.4579836 -236.13472292 702.46909967 -233.26391602 710.39746094 C-232.10628674 713.71207914 -231.18732335 717.06121294 -230.26391602 720.44824219 C-228.92015247 725.23015073 -227.37522163 729.66845189 -225.24829102 734.15136719 C-224.23410177 736.32462985 -223.37070447 738.5210671 -222.51391602 740.76074219 C-216.51248765 755.7643131 -208.89963517 769.61641962 -200.26391602 783.26074219 C-199.72541016 784.11667969 -199.1869043 784.97261719 -198.63208008 785.85449219 C-198.10066406 786.67949219 -197.56924805 787.50449219 -197.02172852 788.35449219 C-196.54106934 789.10408203 -196.06041016 789.85367188 -195.56518555 790.62597656 C-195.1357666 791.16544922 -194.70634766 791.70492187 -194.26391602 792.26074219 C-193.60391602 792.26074219 -192.94391602 792.26074219 -192.26391602 792.26074219 C-192.01641602 792.79699219 -191.76891602 793.33324219 -191.51391602 793.88574219 C-189.95739065 796.84314038 -188.22955928 799.55798269 -186.26391602 802.26074219 C-185.60391602 802.26074219 -184.94391602 802.26074219 -184.26391602 802.26074219 C-184.26391602 802.92074219 -184.26391602 803.58074219 -184.26391602 804.26074219 C-183.60391602 804.26074219 -182.94391602 804.26074219 -182.26391602 804.26074219 C-182.26391602 805.25074219 -182.26391602 806.24074219 -182.26391602 807.26074219 C-180.95123646 808.99017694 -180.95123646 808.99017694 -179.26391602 810.26074219 C-178.60391602 810.26074219 -177.94391602 810.26074219 -177.26391602 810.26074219 C-177.26391602 810.92074219 -177.26391602 811.58074219 -177.26391602 812.26074219 C-175.87479841 813.66885539 -175.87479841 813.66885539 -174.07641602 815.07324219 C-171.76148978 816.98212289 -169.68275527 818.8554183 -167.57641602 821.01074219 C-165.44439438 823.31262972 -165.44439438 823.31262972 -163.01391602 824.38574219 C-162.43641602 824.67449219 -161.85891602 824.96324219 -161.26391602 825.26074219 C-160.76891602 826.74574219 -160.76891602 826.74574219 -160.26391602 828.26074219 C-158.70664743 829.70271845 -158.70664743 829.70271845 -156.82641602 830.94824219 C-156.20895508 831.38523437 -155.59149414 831.82222656 -154.95532227 832.27246094 C-153.30260496 833.42890579 -153.30260496 833.42890579 -151.26391602 833.26074219 C-151.26391602 833.92074219 -151.26391602 834.58074219 -151.26391602 835.26074219 C-150.27391602 835.26074219 -149.28391602 835.26074219 -148.26391602 835.26074219 C-148.26391602 835.92074219 -148.26391602 836.58074219 -148.26391602 837.26074219 C-143.12690995 841.47181876 -137.04184456 844.58978639 -131.19750977 847.69433594 C-129.19563375 848.7632471 -127.20897737 849.8610363 -125.23657227 850.98339844 C-116.84905063 855.70073137 -108.31817421 859.10471366 -99.26391602 862.26074219 C-98.23395508 862.63070312 -97.20399414 863.00066406 -96.14282227 863.38183594 C-87.98479566 866.22662947 -79.67360386 868.32461874 -71.26391602 870.26074219 C-70.15064941 870.52419434 -70.15064941 870.52419434 -69.01489258 870.79296875 C-27.00147289 880.59787949 18.31735569 878.45154853 58.73608398 863.26074219 C59.43362793 863.00067383 60.13117188 862.74060547 60.84985352 862.47265625 C76.32969337 856.61619449 90.76469703 848.78512836 104.92358398 840.26074219 C105.70854248 839.7918457 106.49350098 839.32294922 107.30224609 838.83984375 C109.15045372 837.70485872 110.94939249 836.49029332 112.73608398 835.26074219 C112.73608398 834.60074219 112.73608398 833.94074219 112.73608398 833.26074219 C113.54045898 833.13699219 113.54045898 833.13699219 114.36108398 833.01074219 C117.6094909 831.98492948 120.02360257 830.29510325 122.73608398 828.26074219 C122.73608398 827.60074219 122.73608398 826.94074219 122.73608398 826.26074219 C123.74348633 825.96103516 123.74348633 825.96103516 124.77124023 825.65527344 C128.8535062 823.73515624 131.83574853 820.94663674 135.17358398 817.94824219 C136.46350529 816.8058144 137.75386436 815.66388069 139.04467773 814.52246094 C139.66197754 813.97122559 140.27927734 813.41999023 140.9152832 812.85205078 C142.644517 811.34076814 144.41555267 809.9020077 146.20874023 808.46777344 C147.04276367 807.73945312 147.87678711 807.01113281 148.73608398 806.26074219 C148.73608398 805.60074219 148.73608398 804.94074219 148.73608398 804.26074219 C149.37545898 803.99261719 150.01483398 803.72449219 150.67358398 803.44824219 C153.06740085 802.37406467 153.06740085 802.37406467 153.73608398 799.26074219 C154.72608398 799.26074219 155.71608398 799.26074219 156.73608398 799.26074219 C156.73608398 798.60074219 156.73608398 797.94074219 156.73608398 797.26074219 C157.39608398 797.26074219 158.05608398 797.26074219 158.73608398 797.26074219 C160.51280096 795.58114381 160.51280096 795.58114381 162.29858398 793.44824219 C162.91862305 792.74054687 163.53866211 792.03285156 164.17749023 791.30371094 C165.92033152 789.24800751 165.92033152 789.24800751 166.73608398 786.26074219 C167.34194336 785.96296875 167.94780273 785.66519531 168.57202148 785.35839844 C171.34685283 783.95094788 172.53797602 782.19999607 174.36108398 779.69824219 C177.54163954 775.35796441 177.54163954 775.35796441 179.73608398 774.26074219 C179.73608398 773.27074219 179.73608398 772.28074219 179.73608398 771.26074219 C180.72608398 770.93074219 181.71608398 770.60074219 182.73608398 770.26074219 C184.11584272 768.83973822 184.11584272 768.83973822 185.37280273 767.04980469 C185.86425781 766.38682373 186.35571289 765.72384277 186.86206055 765.04077148 C187.37736328 764.32961182 187.89266602 763.61845215 188.42358398 762.88574219 C188.95306641 762.16491455 189.48254883 761.44408691 190.02807617 760.70141602 C191.09752741 759.24397254 192.1641229 757.78442904 193.2277832 756.32275391 C194.56971728 754.48818362 195.92957159 752.66981997 197.30249023 750.85839844 C198.02307617 749.89804687 198.74366211 748.93769531 199.48608398 747.94824219 C200.12030273 747.10648438 200.75452148 746.26472656 201.40795898 745.39746094 C203.00003591 743.25539785 203.00003591 743.25539785 202.73608398 740.26074219 C203.39608398 740.26074219 204.05608398 740.26074219 204.73608398 740.26074219 C206.07894522 738.50137083 206.07894522 738.50137083 207.38061523 736.20214844 C207.89301758 735.34041016 208.40541992 734.47867188 208.93334961 733.59082031 C209.73289062 732.22086914 209.73289062 732.22086914 210.54858398 730.82324219 C211.07000977 729.94474609 211.59143555 729.06625 212.12866211 728.16113281 C215.05556828 723.20987456 217.89955939 718.21894158 220.66455078 713.17553711 C221.64271891 711.42758253 222.68629734 709.71664549 223.73608398 708.01074219 C231.87058711 693.67696048 238.29307887 672.79306422 234.29858398 656.51074219 C233.79668422 654.75521834 233.28280268 653.00282888 232.73608398 651.26074219 C232.07608398 651.26074219 231.41608398 651.26074219 230.73608398 651.26074219 C230.73608398 650.27074219 230.73608398 649.28074219 230.73608398 648.26074219 C230.07608398 648.26074219 229.41608398 648.26074219 228.73608398 648.26074219 C228.73608398 647.60074219 228.73608398 646.94074219 228.73608398 646.26074219 C226.32587334 644.74320215 225.05272777 644.23757313 222.17358398 644.44824219 C218.10257458 645.80524532 216.86307317 648.02632067 214.83374023 651.77246094 C214.14921224 653.1613775 213.47101473 654.5534287 212.79858398 655.94824219 C212.12280273 657.32714844 211.44702148 658.70605469 210.77124023 660.08496094 C209.77754072 662.1205336 208.78593802 664.15679234 207.80639648 666.19921875 C205.04698229 671.86403274 201.86555446 677.24329841 198.61108398 682.63574219 C197.80477539 683.98732422 197.80477539 683.98732422 196.98217773 685.36621094 C196.20680664 686.65591797 196.20680664 686.65591797 195.41577148 687.97167969 C194.94896973 688.74817871 194.48216797 689.52467773 194.0012207 690.32470703 C192.73608398 692.26074219 192.73608398 692.26074219 190.73608398 694.26074219 C190.73608398 695.25074219 190.73608398 696.24074219 190.73608398 697.26074219 C190.07608398 697.26074219 189.41608398 697.26074219 188.73608398 697.26074219 C188.73608398 698.25074219 188.73608398 699.24074219 188.73608398 700.26074219 C188.07608398 700.26074219 187.41608398 700.26074219 186.73608398 700.26074219 C184.98063172 702.60043146 184.98063172 702.60043146 183.23608398 705.51074219 C182.62764648 706.48527344 182.01920898 707.45980469 181.39233398 708.46386719 C180.06894551 710.69864585 178.85171983 712.91790691 177.73608398 715.26074219 C177.07608398 715.26074219 176.41608398 715.26074219 175.73608398 715.26074219 C175.73608398 716.25074219 175.73608398 717.24074219 175.73608398 718.26074219 C174.74608398 718.59074219 173.75608398 718.92074219 172.73608398 719.26074219 C171.29410772 720.81801077 171.29410772 720.81801077 170.04858398 722.69824219 C169.6115918 723.31570313 169.17459961 723.93316406 168.72436523 724.56933594 C167.56792038 726.22205324 167.56792038 726.22205324 167.73608398 728.26074219 C166.74608398 728.59074219 165.75608398 728.92074219 164.73608398 729.26074219 C163.53304493 730.65071964 162.39973062 732.10123119 161.29858398 733.57324219 C156.45411682 739.65084644 151.09680947 745.13506515 145.61108398 750.63574219 C144.75200439 751.50368408 143.8929248 752.37162598 143.0078125 753.26586914 C139.37646391 756.88109554 135.84961836 760.32961399 131.61889648 763.23730469 C130.66756836 763.90503906 129.71624023 764.57277344 128.73608398 765.26074219 C128.73608398 765.92074219 128.73608398 766.58074219 128.73608398 767.26074219 C128.07608398 767.26074219 127.41608398 767.26074219 126.73608398 767.26074219 C126.73608398 767.92074219 126.73608398 768.58074219 126.73608398 769.26074219 C125.74608398 769.26074219 124.75608398 769.26074219 123.73608398 769.26074219 C123.73608398 769.92074219 123.73608398 770.58074219 123.73608398 771.26074219 C123.19467773 771.51855469 122.65327148 771.77636719 122.09545898 772.04199219 C119.30115957 773.48540513 116.65389052 775.09512752 113.98608398 776.76074219 C113.00124023 777.36917969 112.01639648 777.97761719 111.00170898 778.60449219 C110.25405273 779.15105469 109.50639648 779.69761719 108.73608398 780.26074219 C108.73608398 780.92074219 108.73608398 781.58074219 108.73608398 782.26074219 C108.15342773 782.37289062 107.57077148 782.48503906 106.97045898 782.60058594 C104.51369306 783.3264486 103.04599544 784.31126718 100.98608398 785.82324219 C91.94394324 792.01546728 81.73424922 796.8764924 71.36108398 800.37402344 C69.23589599 801.09190688 67.13705611 801.88747981 65.04858398 802.70605469 C34.87095348 814.06858246 -0.31778009 814.43639832 -31.26391602 806.26074219 C-32.76245117 805.87015625 -32.76245117 805.87015625 -34.29125977 805.47167969 C-40.86706388 803.58279099 -47.01938897 801.16055555 -53.20141602 798.26074219 C-53.91096436 797.92864746 -54.6205127 797.59655273 -55.3515625 797.25439453 C-58.60457775 795.6888545 -61.66605857 794.05833744 -64.64282227 792.01074219 C-67.01587094 790.07565148 -67.01587094 790.07565148 -69.26391602 790.26074219 C-69.26391602 789.60074219 -69.26391602 788.94074219 -69.26391602 788.26074219 C-72.8971529 785.29838524 -72.8971529 785.29838524 -77.26391602 784.26074219 C-77.26391602 783.60074219 -77.26391602 782.94074219 -77.26391602 782.26074219 C-78.06829102 781.99261719 -78.87266602 781.72449219 -79.70141602 781.44824219 C-80.96985352 780.86042969 -80.96985352 780.86042969 -82.26391602 780.26074219 C-82.59391602 779.27074219 -82.92391602 778.28074219 -83.26391602 777.26074219 C-83.92391602 777.26074219 -84.58391602 777.26074219 -85.26391602 777.26074219 C-85.53204102 776.62136719 -85.80016602 775.98199219 -86.07641602 775.32324219 C-87.15059354 772.92942533 -87.15059354 772.92942533 -90.26391602 772.26074219 C-90.59391602 771.27074219 -90.92391602 770.28074219 -91.26391602 769.26074219 C-91.92391602 769.26074219 -92.58391602 769.26074219 -93.26391602 769.26074219 C-93.51141602 768.51824219 -93.75891602 767.77574219 -94.01391602 767.01074219 C-95.08283701 764.21979577 -95.08283701 764.21979577 -97.11547852 762.44824219 C-100.29466548 759.21125182 -102.35518474 755.40107121 -104.67797852 751.52636719 C-105.20133789 750.77871094 -105.72469727 750.03105469 -106.26391602 749.26074219 C-106.92391602 749.26074219 -107.58391602 749.26074219 -108.26391602 749.26074219 C-108.35543945 748.73609375 -108.44696289 748.21144531 -108.54125977 747.67089844 C-109.51470435 744.42432921 -111.17617111 741.63667262 -112.82641602 738.69824219 C-128.2790697 710.21003165 -135.31656904 679.1912618 -139.26391602 647.26074219 C-139.42569336 646.22731689 -139.5874707 645.1938916 -139.75415039 644.12915039 C-140.3237716 639.80652203 -140.60830414 635.5273374 -140.81469727 631.17480469 C-140.85653641 630.30651031 -140.89837555 629.43821594 -140.94148254 628.54360962 C-141.38647245 618.57581341 -141.46122037 608.61210833 -141.45141602 598.63574219 C-141.45150665 597.2033873 -141.45150665 597.2033873 -141.45159912 595.74209595 C-141.43792316 580.49801164 -140.95476545 565.4240384 -139.26391602 550.26074219 C-139.18915039 549.5546582 -139.11438477 548.84857422 -139.03735352 548.12109375 C-138.57028483 543.81152018 -137.95071447 539.54035508 -137.26391602 535.26074219 C-137.12727539 534.39884277 -136.99063477 533.53694336 -136.84985352 532.64892578 C-134.92504112 520.6371993 -132.65041618 508.95163797 -129.26391602 497.26074219 C-128.86535586 495.79924349 -128.46966176 494.33696103 -128.07641602 492.87402344 C-125.46792639 483.21017087 -122.55659524 473.71690534 -119.26391602 464.26074219 C-118.85141602 463.06578125 -118.43891602 461.87082031 -118.01391602 460.63964844 C-114.20858472 449.78256258 -109.90724222 439.3776621 -104.66625977 429.13574219 C-103.3813875 426.50157509 -102.29601455 423.87658476 -101.26391602 421.13574219 C-99.529327 416.59067984 -97.18871548 412.65189074 -94.53344727 408.58496094 C-93.18801088 406.12177739 -92.66982522 404.02385906 -92.26391602 401.26074219 C-91.60391602 401.26074219 -90.94391602 401.26074219 -90.26391602 401.26074219 C-89.93391602 399.61074219 -89.60391602 397.96074219 -89.26391602 396.26074219 C-88.60391602 396.26074219 -87.94391602 396.26074219 -87.26391602 396.26074219 C-86.52141602 394.68292969 -86.52141602 394.68292969 -85.76391602 393.07324219 C-78.9010837 379.46631167 -69.80588562 367.05680468 -60.53051758 355.00927734 C-59.98105469 354.29433105 -59.4315918 353.57938477 -58.86547852 352.84277344 C-58.36612793 352.20186768 -57.86677734 351.56096191 -57.35229492 350.90063477 C-56.07958885 349.31104456 -56.07958885 349.31104456 -56.26391602 347.26074219 C-55.60391602 347.26074219 -54.94391602 347.26074219 -54.26391602 347.26074219 C-52.41544291 345.08781889 -50.67178112 342.90671551 -48.95141602 340.63574219 C-38.9548559 327.60621213 -38.9548559 327.60621213 -36.26391602 326.26074219 C-36.26391602 325.60074219 -36.26391602 324.94074219 -36.26391602 324.26074219 C-35.27391602 323.93074219 -34.28391602 323.60074219 -33.26391602 323.26074219 C-33.26391602 322.60074219 -33.26391602 321.94074219 -33.26391602 321.26074219 C-32.60391602 321.26074219 -31.94391602 321.26074219 -31.26391602 321.26074219 C-29.59724935 319.92740885 -29.59724935 319.92740885 -28.26391602 318.26074219 C-28.26391602 317.60074219 -28.26391602 316.94074219 -28.26391602 316.26074219 C-27.60391602 316.26074219 -26.94391602 316.26074219 -26.26391602 316.26074219 C-24.59724935 314.92740885 -24.59724935 314.92740885 -23.26391602 313.26074219 C-23.26391602 312.60074219 -23.26391602 311.94074219 -23.26391602 311.26074219 C-22.60391602 311.26074219 -21.94391602 311.26074219 -21.26391602 311.26074219 C-19.90470015 309.95380386 -18.57982236 308.61127765 -17.26391602 307.26074219 C-10.48552714 301.12392922 -10.48552714 301.12392922 -7.01391602 298.67089844 C-6.43641602 298.20554687 -5.85891602 297.74019531 -5.26391602 297.26074219 C-5.26391602 296.60074219 -5.26391602 295.94074219 -5.26391602 295.26074219 C-4.59618164 295.04933594 -3.92844727 294.83792969 -3.24047852 294.62011719 C0.75728219 292.7943682 3.91611623 290.21244495 7.36108398 287.51074219 C13.55425565 282.75702252 19.74625597 278.76682206 26.73608398 275.26074219 C28.26086455 274.41364187 29.78184807 273.55966363 31.29858398 272.69824219 C32.77627167 271.88305546 34.2554246 271.07051874 35.73608398 270.26074219 C36.4334668 269.87273437 37.13084961 269.48472656 37.84936523 269.08496094 C65.58054096 254.38121146 98.9521215 248.15658187 129.37670898 257.36230469 C135.4992779 259.56927721 140.78668623 262.26276277 146.02905273 266.12402344 C147.67171934 267.44549571 147.67171934 267.44549571 149.73608398 267.26074219 C150.06608398 268.25074219 150.39608398 269.24074219 150.73608398 270.26074219 C151.39608398 270.26074219 152.05608398 270.26074219 152.73608398 270.26074219 C152.73608398 270.92074219 152.73608398 271.58074219 152.73608398 272.26074219 C153.39608398 272.26074219 154.05608398 272.26074219 154.73608398 272.26074219 C155.06608398 273.25074219 155.39608398 274.24074219 155.73608398 275.26074219 C156.39608398 275.26074219 157.05608398 275.26074219 157.73608398 275.26074219 C157.98358398 275.96199219 158.23108398 276.66324219 158.48608398 277.38574219 C159.6345997 280.30969373 159.6345997 280.30969373 161.54858398 282.76074219 C175.52914334 303.10558603 175.17439417 335.42105176 171.10717773 358.88964844 C169.68322472 365.80066647 167.91624222 372.552563 165.73608398 379.26074219 C165.42670898 380.25074219 165.11733398 381.24074219 164.79858398 382.26074219 C162.88561472 388.23877115 160.69627484 393.73651984 157.73608398 399.26074219 C156.98172987 400.75855722 156.23208933 402.2587515 155.48608398 403.76074219 C153.91197089 406.91385692 152.33162395 410.06368668 150.74389648 413.20996094 C150.03295563 414.62271967 149.32201814 416.03548009 148.61108398 417.44824219 C148.27431641 418.11339844 147.93754883 418.77855469 147.59057617 419.46386719 C142.8370111 428.70691523 142.8370111 428.70691523 141.29858398 438.88574219 C141.27924805 439.97113281 141.25991211 441.05652344 141.23999023 442.17480469 C141.84851336 445.96010604 143.05306168 447.56347374 145.73608398 450.26074219 C152.95565003 455.00054425 162.6343791 453.34430354 170.73608398 452.26074219 C173.91362568 451.56624954 176.74931323 450.53318107 179.73608398 449.26074219 C180.65518555 448.92171875 181.57428711 448.58269531 182.52124023 448.23339844 C194.36658004 443.69395854 207.25218383 435.90754455 215.73608398 426.26074219 C215.73608398 425.60074219 215.73608398 424.94074219 215.73608398 424.26074219 C216.72608398 423.93074219 217.71608398 423.60074219 218.73608398 423.26074219 C220.85995339 421.01581915 220.85995339 421.01581915 222.92358398 418.32324219 C223.63901367 417.42734375 224.35444336 416.53144531 225.09155273 415.60839844 C226.92732955 413.46545423 226.92732955 413.46545423 226.73608398 411.26074219 C227.39608398 411.26074219 228.05608398 411.26074219 228.73608398 411.26074219 C228.73608398 410.27074219 228.73608398 409.28074219 228.73608398 408.26074219 C229.39608398 408.26074219 230.05608398 408.26074219 230.73608398 408.26074219 C236.09453347 400.8204227 240.19504814 392.69416325 243.73608398 384.26074219 C244.23366211 383.15085937 244.73124023 382.04097656 245.24389648 380.89746094 C248.97441284 371.80554805 250.98720549 361.91080386 252.73608398 352.26074219 C252.92170898 351.42285156 253.10733398 350.58496094 253.29858398 349.72167969 C259.3694146 319.78911208 251.26611677 288.68820257 234.89624023 263.42089844 C233.21928514 261.01448918 233.21928514 261.01448918 230.73608398 258.26074219 C230.07608398 258.26074219 229.41608398 258.26074219 228.73608398 258.26074219 C227.73608398 256.26074219 226.73608398 254.26074219 225.73608398 252.26074219 C225.07608398 252.26074219 224.41608398 252.26074219 223.73608398 252.26074219 C223.73608398 251.60074219 223.73608398 250.94074219 223.73608398 250.26074219 C222.40275065 248.59407552 222.40275065 248.59407552 220.73608398 247.26074219 C220.07608398 247.26074219 219.41608398 247.26074219 218.73608398 247.26074219 C218.73608398 246.60074219 218.73608398 245.94074219 218.73608398 245.26074219 C217.74608398 245.26074219 216.75608398 245.26074219 215.73608398 245.26074219 C215.40608398 244.27074219 215.07608398 243.28074219 214.73608398 242.26074219 C214.07608398 242.26074219 213.41608398 242.26074219 212.73608398 242.26074219 C212.73608398 241.60074219 212.73608398 240.94074219 212.73608398 240.26074219 C195.24778198 225.82359074 172.61513192 216.53949661 150.73608398 211.26074219 C149.33543701 210.91366211 149.33543701 210.91366211 147.90649414 210.55957031 C86.77619017 196.14840138 20.67542065 209.22566284 -34.48803711 237.36328125 Z " fill="#111111" transform="translate(537.263916015625,-0.2607421875)"/>
<path d="M0 0 C0.66 0.33 1.32 0.66 2 1 C-7.11926735 11.43885125 -16.51763909 22.1199484 -28 30 C-26.15014033 26.06048404 -23.92434659 23.21678125 -21 20 C-20.34 20 -19.68 20 -19 20 C-19 19.34 -19 18.68 -19 18 C-17.625 16.375 -17.625 16.375 -16 15 C-15.34 15 -14.68 15 -14 15 C-13.67 14.01 -13.34 13.02 -13 12 C-12.34 12 -11.68 12 -11 12 C-11 11.34 -11 10.68 -11 10 C-10.34 10 -9.68 10 -9 10 C-8.67 9.01 -8.34 8.02 -8 7 C-7.34 7 -6.68 7 -6 7 C-6 6.34 -6 5.68 -6 5 C-5.34 5 -4.68 5 -4 5 C-3.67 4.01 -3.34 3.02 -3 2 C-2.01 1.34 -1.02 0.68 0 0 Z " fill="#6F6F6F" transform="translate(520,306)"/>
</svg>
